<?xml version="1.0" encoding="utf-8"?>
<!-- Generator: Adobe Illustrator 23.0.4, SVG Export Plug-In . SVG Version: 6.00 Build 0)  -->
<svg version="1.1" id="Layer_1" xmlns="http://www.w3.org/2000/svg" xmlns:xlink="http://www.w3.org/1999/xlink" x="0px" y="0px"
	 viewBox="0 0 240 240" style="enable-background:new 0 0 240 240;" xml:space="preserve">
<style type="text/css">
	.st0{fill:none;stroke:#005EB8;stroke-width:4;stroke-miterlimit:10;}
</style>
<title>I-TL-Professional-Blue-120x150</title>
<path class="st0" d="M99.8,116.2h40.5c0.6,0,1.2,0.5,1.2,1.2v15.5c0,0.6-0.5,1.2-1.2,1.2H99.8c-0.6,0-1.2-0.5-1.2-1.2v-15.5
	C98.6,116.7,99.1,116.2,99.8,116.2z"/>
<path class="st0" d="M207.8,106.6l3.3-0.9c1.2-0.1,2.1-1.1,2.1-2.3V66.8c0-1.1-0.9-2-2.1-2.1H28.9c-1.1,0-2,0.9-2.1,2.1v36.3
	c0,1.2,0.9,2.2,2.1,2.3l3.3,0.9"/>
<path class="st0" d="M98.4,123.9l-66.2-17.7v83.6c0,0.6,0.5,1,1,1c0,0,0,0,0,0h173.6c0.6,0,1-0.5,1-1l0,0v-83.3l-66.3,17.8"/>
<polyline class="st0" points="180.4,114.3 180.4,190.8 59.6,190.8 59.6,114.3 "/>
<path class="st0" d="M149.8,64.6V50.5c0-0.8-0.6-1.4-1.4-1.4H91.6c-0.8,0-1.4,0.6-1.4,1.4v14.1"/>
</svg>
