<svg id="Layer_1" data-name="Layer 1" xmlns="http://www.w3.org/2000/svg" viewBox="0 0 240 240"><defs><style>.cls-1{fill:none;stroke:#005EB8;stroke-linecap:round;stroke-linejoin:round;stroke-width:4px;}</style></defs><title>06-UNIVERSAL-SYMBOLS-CONCEPTS-A-YELLO</title><path class="cls-1" d="M78.7,140.32a76.48,76.48,0,0,1-22.09,3c-20.78,0-37.63-7.12-37.63-15.9s16.85-15.9,37.63-15.9a76.89,76.89,0,0,1,22.1,3"/><path class="cls-1" d="M78.7,180.42a76.48,76.48,0,0,1-22.09,3c-20.78,0-37.63-7.12-37.63-15.9v-40.1"/><path class="cls-1" d="M78.71,160.37a76.55,76.55,0,0,1-22.1,3C35.83,163.4,19,156.28,19,147.5"/><path class="cls-1" d="M154,97.5c6.89-3.65,17.52-6,29.43-6,20.78,0,37.63,7.11,37.63,15.89s-16.85,15.9-37.63,15.9c-11.5,0-21.8-2.18-28.7-5.61"/><path class="cls-1" d="M221,147.5c0,8.78-16.85,15.9-37.63,15.9-11.91,0-22.53-2.34-29.43-6"/><path class="cls-1" d="M221,127.45c0,8.78-16.85,15.9-37.63,15.9-11.91,0-22.54-2.34-29.43-6"/><path class="cls-1" d="M221,107.4v60.15h0c0,8.78-16.85,15.9-37.63,15.9-11.36,0-21.55-2.13-28.45-5.49"/><path class="cls-1" d="M154,63.51v20c0,8.79-16.84,15.91-37.63,15.91S78.7,92.34,78.7,83.55v-20c0,8.78,16.85,15.9,37.63,15.9S154,72.29,154,63.51Z"/><path class="cls-1" d="M154,83.55v20.06c0,8.77-16.84,15.9-37.63,15.9s-37.63-7.13-37.63-15.9V83.55c0,8.79,16.85,15.91,37.63,15.91S154,92.34,154,83.55Z"/><path class="cls-1" d="M154,103.61v20c0,8.78-16.84,15.9-37.63,15.9s-37.63-7.12-37.63-15.9v-20c0,8.77,16.85,15.9,37.63,15.9S154,112.38,154,103.61Z"/><path class="cls-1" d="M154,123.66v20c0,8.78-16.84,15.9-37.63,15.9S78.7,152.48,78.7,143.7v-20c0,8.78,16.85,15.9,37.63,15.9S154,132.44,154,123.66Z"/><path class="cls-1" d="M154,143.7v20.06c0,8.77-16.84,15.89-37.63,15.89S78.7,172.53,78.7,163.76V143.7c0,8.78,16.85,15.9,37.63,15.9S154,152.48,154,143.7Z"/><path class="cls-1" d="M154,163.76v20c0,8.79-16.84,15.9-37.63,15.9S78.7,192.59,78.7,183.8v-20c0,8.77,16.85,15.89,37.63,15.89S154,172.53,154,163.76Z"/><path class="cls-1" d="M154,63.51c0,8.78-16.84,15.9-37.63,15.9S78.7,72.29,78.7,63.51s16.85-15.9,37.63-15.9S154,54.73,154,63.51Z"/></svg>
