<?xml version="1.0" encoding="utf-8"?>
<!-- Generator: Adobe Illustrator 23.0.1, SVG Export Plug-In . SVG Version: 6.00 Build 0)  -->
<svg version="1.1" xmlns="http://www.w3.org/2000/svg" xmlns:xlink="http://www.w3.org/1999/xlink" x="0px" y="0px"
	 viewBox="0 0 240 240" style="enable-background:new 0 0 240 240;" xml:space="preserve">
<style type="text/css">
	.st0{fill:none;stroke:#005EB8;stroke-width:4;stroke-linecap:round;stroke-linejoin:round;stroke-miterlimit:10;}
	.st1{fill:none;stroke:#005EB8;stroke-width:4;stroke-miterlimit:10;}
	.st2{display:none;}
	.st3{display:inline;}
	.st4{fill:#005EB8;}
	.st5{display:inline;fill:#005EB8;}
	.st6{fill:none;stroke:#005EB8;stroke-width:4;stroke-linecap:round;stroke-linejoin:round;}
	.st7{fill:none;stroke:#005EB8;stroke-width:3.2242;stroke-linecap:round;stroke-linejoin:round;stroke-miterlimit:10;}
	.st8{fill:#005EB8;}
	.st9{fill:none;stroke:#005EB8;stroke-width:3;stroke-linecap:round;stroke-linejoin:round;stroke-miterlimit:10;}
	.st10{fill:none;stroke:#005EB8;stroke-width:4;stroke-linecap:round;stroke-linejoin:round;stroke-miterlimit:10;}
</style>
<g id="Layer_1">
	<g>
		<path class="st0" d="M79.97,129.33l18.92-18.92V52.49 M102.08,179.9c6.29,0,11.39-5.1,11.39-11.39c0-6.29-5.1-11.39-11.39-11.39
			s-11.39,5.1-11.39,11.39C90.69,174.8,95.79,179.9,102.08,179.9z M126.95,212.85c6.29,0,11.39-5.1,11.39-11.39
			c0-6.29-5.1-11.39-11.39-11.39c-6.29,0-11.39,5.1-11.39,11.39C115.57,207.76,120.66,212.85,126.95,212.85z M154.75,116.65
			c6.29,0,11.39-5.1,11.39-11.39c0-6.29-5.1-11.39-11.39-11.39c-6.29,0-11.39,5.1-11.39,11.39
			C143.36,111.55,148.46,116.65,154.75,116.65z M98.92,27.14c-6.29,0-11.39,5.1-11.39,11.39c0,6.29,5.1,11.39,11.39,11.39
			c6.29,0,11.39-5.1,11.39-11.39C110.31,32.24,105.21,27.14,98.92,27.14z M121.03,84.83c6.29,0,11.39-5.1,11.39-11.39
			c0-6.29-5.1-11.39-11.39-11.39c-6.29,0-11.39,5.1-11.39,11.39C109.64,79.73,114.74,84.83,121.03,84.83z M71.13,125.01
			c-6.29,0-11.39,5.1-11.39,11.39c0,6.29,5.1,11.39,11.39,11.39c6.29,0,11.39-5.1,11.39-11.39
			C82.52,130.1,77.42,125.01,71.13,125.01z M145.9,112.33l-18.92,18.92v56.25 M121.03,87.17v26.46l-18.92,18.92v21.98"/>
	</g>
</g>
<g id="Layer_2">
</g>
</svg>
