<?xml version="1.0" encoding="utf-8"?>
<!-- Generator: Adobe Illustrator 23.0.4, SVG Export Plug-In . SVG Version: 6.00 Build 0)  -->
<svg version="1.1" id="Layer_1" xmlns="http://www.w3.org/2000/svg" xmlns:xlink="http://www.w3.org/1999/xlink" x="0px" y="0px"
	 viewBox="0 0 240 240" style="enable-background:new 0 0 240 240;" xml:space="preserve">
<style type="text/css">
	.st0{fill:none;stroke:#005EB8;stroke-width:4;stroke-miterlimit:10;}
</style>
<title>I-HouseStyle-140x175</title>
<path class="st0" d="M188.9,78.6c2.4,2.4,3.9,5.7,4.1,9.1v118c0,3-2.4,5.4-5.4,5.4h-41.4c-3,0-7.3-2.5-7.3-5.4v-50.9
	c0-3-2.4-5.4-5.4-5.4h-26.8c-3,0-5.4,2.4-5.4,5.4v50.9c0,3-4.4,5.4-7.3,5.4H52.4c-3,0-5.4-2.4-5.4-5.4v-118c0.2-3.4,1.6-6.6,4.1-9.1
	L116,30.3c2.3-2,5.8-2,8.1,0L188.9,78.6z M177.2,128.7V99.3c0-1.8-1.5-3.3-3.3-3.3l0,0h-17.4c-1.8,0-3.3,1.5-3.3,3.3l0,0v29.5
	c0,1.8,1.5,3.3,3.3,3.3h17.4C175.6,132,177.1,130.5,177.2,128.7L177.2,128.7z M131.6,128.7V99.3c0-1.8-1.5-3.3-3.3-3.3l0,0h-17.4
	c-1.8,0-3.3,1.5-3.3,3.3v29.5c0,1.8,1.5,3.3,3.3,3.3h17.4C130,132,131.5,130.5,131.6,128.7L131.6,128.7z M86,128.7V99.3
	c0-1.8-1.5-3.3-3.3-3.3H65.2c-1.8,0-3.3,1.5-3.3,3.3v29.5c0,1.8,1.5,3.3,3.3,3.3h17.4C84.4,132,85.9,130.5,86,128.7L86,128.7z
	 M177.2,186.7v-29.5c0-1.8-1.5-3.3-3.3-3.3l0,0h-17.4c-1.8,0-3.3,1.5-3.3,3.3l0,0v29.5c0,1.8,1.5,3.3,3.3,3.3l0,0h17.4
	C175.7,190.1,177.2,188.6,177.2,186.7L177.2,186.7L177.2,186.7z M86,186.7v-29.5c0-1.8-1.5-3.3-3.3-3.3l0,0H65.2
	c-1.8,0-3.3,1.5-3.3,3.3l0,0v29.5c0,1.8,1.5,3.3,3.3,3.3l0,0h17.4C84.5,190.1,86,188.6,86,186.7L86,186.7L86,186.7z"/>
</svg>
