<?xml version="1.0" encoding="utf-8"?>
<!-- Generator: Adobe Illustrator 22.1.0, SVG Export Plug-In . SVG Version: 6.00 Build 0)  -->
<svg version="1.1" xmlns="http://www.w3.org/2000/svg" xmlns:xlink="http://www.w3.org/1999/xlink" x="0px" y="0px"
	 viewBox="0 0 240 240" style="enable-background:new 0 0 240 240;" xml:space="preserve">
<style type="text/css">
	.st0{fill:none;stroke:#005EB8;stroke-width:4;stroke-linecap:round;stroke-miterlimit:10;}
	.st1{fill:none;stroke:#005EB8;stroke-width:3.7335;stroke-linecap:round;stroke-linejoin:round;stroke-miterlimit:10;}
	.st2{fill:none;stroke:#005EB8;stroke-width:4.1069;stroke-linecap:round;stroke-linejoin:round;stroke-miterlimit:10;}
	.st3{fill:none;stroke:#005EB8;stroke-width:4;stroke-linecap:round;stroke-linejoin:round;stroke-miterlimit:10;}
	.st4{display:none;}
	.st5{display:inline;}
	.st6{fill:#005EB8;}
	.st7{display:inline;fill:#005EB8;}
	.st8{fill:none;stroke:#005EB8;stroke-width:4;stroke-miterlimit:10;}
	.st9{fill:#005EB8;}
	.st10{fill:#005EB8;}
	.st11{fill:none;stroke:#005EB8;stroke-width:3.8462;stroke-linecap:round;stroke-linejoin:round;stroke-miterlimit:10;}
	.st12{fill:none;stroke:#005EB8;stroke-width:4;stroke-linecap:round;stroke-linejoin:round;}
	.st13{fill:none;stroke:#005EB8;stroke-width:3.7973;stroke-miterlimit:10;}
	.st14{fill:none;stroke:#005EB8;stroke-width:3.5837;stroke-linecap:round;stroke-linejoin:round;stroke-miterlimit:10;}
</style>
<g id="Layer_1">
	<g>
		<path class="st3" d="M174.1,109.2c0-29.4-23.9-53.3-53.3-53.3c-29.4,0-53.3,23.9-53.3,53.3c0,20.6,11.7,38.4,28.7,47.3
			c-0.1,0.7-0.2,1.4-0.2,2.2v7.7c0,8.5,6.9,15.4,15.4,15.4h15.9c8.5,0,15.4-6.9,15.4-15.4v-7.7c0-0.3,0-0.6,0-0.9
			C161.2,149.5,174.1,130.9,174.1,109.2z"/>
		<line class="st3" x1="103.5" y1="197.5" x2="136.2" y2="197.5"/>
		<line class="st3" x1="106.7" y1="217.2" x2="133" y2="217.2"/>
		<line class="st3" x1="120.8" y1="38.2" x2="120.8" y2="22.8"/>
		<line class="st3" x1="161.3" y1="51.8" x2="170.3" y2="39.4"/>
		<line class="st3" x1="186" y1="86.6" x2="200.6" y2="81.8"/>
		<line class="st3" x1="185.6" y1="129.3" x2="200.2" y2="134"/>
		<line class="st3" x1="79.6" y1="50.9" x2="70.6" y2="38.5"/>
		<line class="st3" x1="53.8" y1="85.4" x2="39.2" y2="80.6"/>
		<line class="st3" x1="53.2" y1="128.4" x2="38.6" y2="133.2"/>
	</g>
</g>
<g id="Layer_2">
</g>
</svg>
