<?xml version="1.0" encoding="utf-8"?>
<!-- Generator: Adobe Illustrator 23.0.4, SVG Export Plug-In . SVG Version: 6.00 Build 0)  -->
<svg version="1.1" id="Layer_1" xmlns="http://www.w3.org/2000/svg" xmlns:xlink="http://www.w3.org/1999/xlink" x="0px" y="0px"
	 viewBox="0 0 240 240" style="enable-background:new 0 0 240 240;" xml:space="preserve">
<style type="text/css">
	.st0{fill:none;stroke:#005EB8;stroke-width:4;stroke-linecap:round;stroke-linejoin:round;}
	.st1{fill:none;stroke:#005EB8;stroke-width:4;stroke-linecap:round;stroke-miterlimit:10;}
</style>
<title>I-TL-Personal-Blue-120x150</title>
<g>
	<circle class="st0" cx="120.6" cy="89.8" r="28.8"/>
	<path class="st0" d="M74,176.2c0-25.7,20.8-46.6,46.6-46.6s46.6,20.8,46.6,46.6"/>
	<path class="st1" d="M216.3,120.1c0,8.2-11.1,14.8-13.1,22.3c-2,7.5,4.1,19.1,0.2,25.9c-3.9,6.8-16.9,7.1-22.5,12.7
		s-5.8,18.5-12.7,22.5c-6.9,3.9-18.1-2.3-25.9-0.2s-14.1,13.1-22.3,13.1s-14.8-11.1-22.3-13.1c-7.5-2-19.1,4.1-25.9,0.2
		c-6.8-3.9-7.1-16.9-12.7-22.5s-18.5-5.8-22.5-12.7c-3.9-6.9,2.3-18.1,0.2-25.9c-2.1-7.8-13.1-14.1-13.1-22.3s11-14.8,13-22.2
		c2-7.5-4.1-19.1-0.2-25.9s16.9-7.1,22.5-12.7c5.6-5.6,5.9-18.6,12.8-22.7s18.1,2.3,25.9,0.2c7.8-2.1,14.1-13.1,22.3-13.1
		s14.8,11.1,22.3,13.1c7.5,2,19.1-4.1,25.9-0.2s7.1,16.9,12.7,22.5c5.6,5.6,18.6,5.9,22.7,12.8c4.1,6.9-2.3,18.1-0.2,25.9
		S216.3,111.9,216.3,120.1z"/>
</g>
</svg>
