<?xml version="1.0" encoding="utf-8"?>
<!-- Generator: Adobe Illustrator 23.0.4, SVG Export Plug-In . SVG Version: 6.00 Build 0)  -->
<svg version="1.1" id="Layer_1" xmlns="http://www.w3.org/2000/svg" xmlns:xlink="http://www.w3.org/1999/xlink" x="0px" y="0px"
	 viewBox="0 0 240 240" style="enable-background:new 0 0 240 240;" xml:space="preserve">
<style type="text/css">
	.st0{fill:none;stroke:#005EB8;stroke-width:4;stroke-linecap:round;stroke-linejoin:round;}
</style>
<title>I-TL-PeopleFocussed-Blue-120x150</title>
<circle class="st0" cx="87.4" cy="54.2" r="23"/>
<path class="st0" d="M55.2,115.4c0-21.1,14.4-38.3,32.2-38.3s32.2,17.1,32.2,38.3"/>
<circle class="st0" cx="151.7" cy="54.2" r="23"/>
<path class="st0" d="M119.5,115.4c0-21.1,14.4-38.3,32.2-38.3s32.2,17.1,32.2,38.3"/>
<circle class="st0" cx="55.7" cy="147.5" r="23"/>
<path class="st0" d="M23.6,208.8c0-21.1,14.4-38.3,32.2-38.3s32.2,17.1,32.2,38.3"/>
<circle class="st0" cx="120" cy="147.5" r="23"/>
<path class="st0" d="M87.9,208.8c0-21.1,14.4-38.3,32.2-38.3s32.2,17.1,32.2,38.3"/>
<circle class="st0" cx="184.3" cy="147.5" r="23"/>
<path class="st0" d="M152.2,208.8c0-21.1,14.4-38.3,32.2-38.3s32.2,17.1,32.2,38.3"/>
</svg>
