<svg xmlns="http://www.w3.org/2000/svg" viewBox="0 0 100 100"><title>icon-date-range</title><g id="Layer_2" data-name="Layer 2"><path d="M92,15.39a1.72,1.72,0,0,1,1.73,1.73V90.2A1.72,1.72,0,0,1,92,91.93H8A1.73,1.73,0,0,1,6.26,90.2V17.12A1.73,1.73,0,0,1,8,15.39H92m0-5.6H8A7.33,7.33,0,0,0,.66,17.12V90.2A7.33,7.33,0,0,0,8,97.53H92a7.33,7.33,0,0,0,7.33-7.33V17.12A7.33,7.33,0,0,0,92,9.79Z" style="fill:#fff"/><path d="M92,9.79H8A7.33,7.33,0,0,0,.66,17.12V33.83H99.38V17.12A7.34,7.34,0,0,0,92,9.79ZM26.54,22.93a7.7,7.7,0,1,1-15.4,0m78.88,0a7.7,7.7,0,1,1-15.4,0" style="fill:#fff"/><rect x="14.87" y="2.64" width="7.93" height="24.61" rx="3.76" ry="3.76" style="fill:#fff"/><rect x="78.35" y="2.64" width="7.93" height="24.61" rx="3.76" ry="3.76" style="fill:#fff"/><polygon points="80.31 62.7 64.94 47.33 64.94 57.56 35.05 57.56 35.05 47.33 19.69 62.7 35.05 78.07 35.05 67.84 64.94 67.84 64.94 78.07 80.31 62.7" style="fill:#fff"/></g></svg>