<svg xmlns="http://www.w3.org/2000/svg" viewBox="0 0 100 100"><title>icon-download-pdf</title><g id="Layer_2" data-name="Layer 2"><polygon points="93.17 96.33 6.83 96.33 6.83 2.83 69.33 2.83 93.17 27.5 93.17 96.33" style="fill:#f64c4d"/><polygon points="69.33 2.83 69.33 27.5 93.17 27.5 69.33 2.83" style="fill:#ba0000"/><path d="M25.63,85.19h-.26C21.26,85,20,82.41,19.62,81.32c-1.09-3.33,1-7.24,3.57-9.39a49.85,49.85,0,0,1,11.49-7.29,195.32,195.32,0,0,0,10.77-27c-6.2-10.77-5.56-18-2.78-21.2a4.77,4.77,0,0,1,5.91-1.21c3.26,1.7,5.79,7.48,3.08,18.6-.25,1-.52,2.06-.8,3.1q.72,1.15,1.59,2.4a159,159,0,0,0,12.4,16,37,37,0,0,1,6.38-.69c6.27,0,9.45,2,9.45,5.83A6.27,6.27,0,0,1,78,65.35a8.11,8.11,0,0,1-7,1.35c-1.88-.56-4.59-2.66-7.84-6-3.25.7-7.48,1.82-13,3.53a122.76,122.76,0,0,0-11.73,4.21c-.82,1.68-1.54,3.12-2.13,4.25l-.39.76C32.65,79.74,29.86,85.19,25.63,85.19Zm-.08-5Zm5.18-7.68a50,50,0,0,0-4.36,3.27c-1.56,1.29-2.24,3.24-2,4,.11.32.93.41,1.21.43C26.84,79.79,29.14,75.59,30.73,72.52ZM69.25,59.68a11.36,11.36,0,0,0,3.13,2.23,3.12,3.12,0,0,0,2.6-.57,1.53,1.53,0,0,0,.7-.94.55.55,0,0,0,0-.12h0s-.68-.71-4.44-.71A19.69,19.69,0,0,0,69.25,59.68ZM49,43.05a202,202,0,0,1-7.48,18.81c2.11-.77,4.48-1.57,7.15-2.4q5.93-1.85,10.62-3C56.1,52.78,52.61,48.24,49,43.05ZM46.4,19.73a3.42,3.42,0,0,0-.56,1.34c-.23,1-.54,4,1.49,9.06C48.57,23.2,47,20.31,46.4,19.73Z" style="fill:#fff"/></g></svg>