<svg xmlns="http://www.w3.org/2000/svg" viewBox="0 0 100 100"><title>icon-geographic-coverage</title><g id="Layer_2" data-name="Layer 2"><path d="M88.21,20.71a15.25,15.25,0,0,1,.1,1.66A13.8,13.8,0,0,1,86.61,29a42,42,0,0,1,5.54,19H75.59a78.39,78.39,0,0,0-1.08-11.7h-.17a14.14,14.14,0,0,1-3.93-.57A73.34,73.34,0,0,1,71.65,48H52V7.85h.18a30.92,30.92,0,0,1,9.71,8.23,14.37,14.37,0,0,1,2.37-3.36,38.29,38.29,0,0,0-3.39-3.52,41.64,41.64,0,0,1,5.31,1.85A13.86,13.86,0,0,1,74.23,8.4a48.21,48.21,0,1,0,14,12.31ZM39.85,9A39.72,39.72,0,0,0,31.31,21,54.74,54.74,0,0,1,24,16.8,42.06,42.06,0,0,1,39.85,9Zm-19,10.45a56.47,56.47,0,0,0,8.87,5.13A69,69,0,0,0,25.64,48H7.85A42.05,42.05,0,0,1,20.87,19.48ZM7.85,52H25.64a69.23,69.23,0,0,0,4.17,23.32,56.56,56.56,0,0,0-9,5.19A42.06,42.06,0,0,1,7.85,52Zm16.06,31.2A52.63,52.63,0,0,1,31.39,79,40.27,40.27,0,0,0,40.06,91,42.16,42.16,0,0,1,23.91,83.17ZM48,92.1c-3.24-1.84-8.81-6-13-14.67a43.85,43.85,0,0,1,13-2.77Zm0-21.39a47.68,47.68,0,0,0-14.58,3.07A65.19,65.19,0,0,1,29.59,52H48ZM48,48H29.58a65.23,65.23,0,0,1,3.8-21.91A47.48,47.48,0,0,0,48,29.22Zm0-22.76A43.69,43.69,0,0,1,35,22.47C39.15,13.79,44.78,9.64,48,7.85ZM52,52H71.64a61.68,61.68,0,0,1-4.23,22.15A48.1,48.1,0,0,0,52,70.72Zm.08,40.18H52V74.67a44.28,44.28,0,0,1,13.76,3.07C61.28,86.24,55.41,90.36,52.05,92.15Zm8.56-1.3a40.35,40.35,0,0,0,8.74-11.53,54.6,54.6,0,0,1,6.74,3.84A42.08,42.08,0,0,1,60.61,90.85ZM79.18,80.48A56.59,56.59,0,0,0,71,75.71c2.54-6.11,4.32-13.9,4.55-23.74H92.15A42.08,42.08,0,0,1,79.18,80.48Z" style="fill:#fff"/><path d="M72.51,53C71.75,52.31,54,35.43,54,21.62a19.58,19.58,0,1,1,39.16,0c0,12.44-17.76,30.59-18.51,31.36l-1,1Zm1-37.46a6.74,6.74,0,1,0,6.73,6.74A6.74,6.74,0,0,0,73.54,15.56Z" style="fill:#fff"/><path d="M73.54,3.53A18.09,18.09,0,0,1,91.62,21.62c0,12-18.08,30.3-18.08,30.3s-18.08-17-18.08-30.3A18.08,18.08,0,0,1,73.54,3.53m0,27A8.24,8.24,0,1,0,65.3,22.3a8.23,8.23,0,0,0,8.24,8.23m0-30A21.1,21.1,0,0,0,52.46,21.62c0,14.46,18.25,31.76,19,32.49l2.14,2,2-2.08c1.94-2,19-19.58,19-32.41A21.11,21.11,0,0,0,73.54.53Zm0,27a5.24,5.24,0,1,1,5.23-5.23,5.24,5.24,0,0,1-5.23,5.23Z" style="fill:#005db8"/></g></svg>