<svg xmlns="http://www.w3.org/2000/svg" viewBox="0 0 100 100"><title>icon-granularity</title><g id="Layer_2" data-name="Layer 2"><path d="M50,15.38a41.34,41.34,0,0,0-6.23.52,9,9,0,0,0,4.47,2.61c5.88,1.44,8.75,1.83,10,4.18s-2,5.48,2.61,9.13,14.23,8.23,14.23,16.45-6.14,8-5.61,16.83.13,11.75-4.83,15.67S53.85,89.9,60.51,89s10.05-.65,5.22,2.61S49.55,96,39.5,92.38,29.19,81.29,34.28,78.16s3.65-6.4,1.56-7.57-7.17-7.18-9.92-7.18-5.74,3.52-5.87,6.92-4,4.3-5.35.65S12,59.62,18.09,58.45s6.27-5.22,4.57-8.48-6.39-4.18-6.39-9.53A30.56,30.56,0,0,1,18.75,29.6h0A41.54,41.54,0,1,0,50,15.38Z" style="fill:#fff"/><path d="M42.24,23.92,33.38,9C35.83,6.42,37,4.1,36.17,2.74,34.75.34,27.84,1.8,20.72,6S9,15.58,10.41,18c.89,1.5,3.93,1.49,7.83.24L26.81,32.7c-2.89,2.94-4.24,5.83-3.2,7.58,1.56,2.64,8,1.78,14.62-1.83L50.85,59.77l3.21-1.9L41.42,36.51c6-4,9.45-8.93,7.95-11.47C48.43,23.44,45.71,23.13,42.24,23.92Z" style="fill:#fff"/></g></svg>