<?xml version="1.0" encoding="UTF-8"?>
<svg id="Layer_1" data-name="Layer 1" xmlns="http://www.w3.org/2000/svg" viewBox="0 0 100 100">
  <defs>
    <style>
      .cls-1, .cls-2 {
        fill: #fff;
      }

      .cls-3 {
        fill: #a8bd3a;
      }

      .cls-2 {
        stroke: #003c57;
        stroke-miterlimit: 10;
        stroke-width: .75px;
      }

      .cls-4 {
        fill: #003c57;
      }
    </style>
  </defs>
  <g>
    <g>
      <path class="cls-1" d="m24,96.32c-5.31,0-9.62-4.32-9.62-9.62s4.32-9.62,9.62-9.62h52c5.31,0,9.62,4.32,9.62,9.62s-4.32,9.62-9.62,9.62H24Z"/>
      <path class="cls-4" d="m76,77.44c5.1,0,9.25,4.15,9.25,9.25s-4.15,9.25-9.25,9.25H24c-5.1,0-9.25-4.15-9.25-9.25s4.15-9.25,9.25-9.25h52m0-.75H24c-5.52,0-10,4.48-10,10s4.48,10,10,10h52c5.52,0,10-4.48,10-10s-4.48-10-10-10h0Z"/>
    </g>
    <g>
      <path class="cls-4" d="m27.97,90.4l-.52-1.7h-2.6l-.52,1.7h-1.63l2.52-7.17h1.85l2.53,7.17h-1.63Zm-.88-2.97c-.48-1.54-.75-2.41-.81-2.61s-.1-.36-.13-.48c-.11.42-.42,1.45-.92,3.09h1.86Z"/>
      <path class="cls-4" d="m32.7,90.49c-1.7,0-2.55-.93-2.55-2.8,0-.93.23-1.64.69-2.13.46-.49,1.12-.74,1.99-.74.63,0,1.2.12,1.7.37l-.44,1.15c-.23-.09-.45-.17-.65-.23-.2-.06-.4-.09-.61-.09-.77,0-1.16.55-1.16,1.65s.39,1.6,1.16,1.6c.29,0,.55-.04.8-.11.24-.08.49-.2.73-.36v1.27c-.24.15-.48.26-.73.32-.25.06-.55.09-.93.09Z"/>
      <path class="cls-4" d="m37.95,90.49c-1.7,0-2.55-.93-2.55-2.8,0-.93.23-1.64.69-2.13.46-.49,1.12-.74,1.99-.74.63,0,1.2.12,1.7.37l-.44,1.15c-.23-.09-.45-.17-.65-.23-.2-.06-.4-.09-.61-.09-.77,0-1.16.55-1.16,1.65s.39,1.6,1.16,1.6c.29,0,.55-.04.8-.11.24-.08.49-.2.73-.36v1.27c-.24.15-.48.26-.73.32s-.56.09-.93.09Z"/>
      <path class="cls-4" d="m44.02,84.84c.2,0,.37.01.5.04l-.11,1.4c-.12-.03-.27-.05-.44-.05-.47,0-.85.12-1.11.37s-.4.59-.4,1.03v2.78h-1.49v-5.46h1.13l.22.92h.07c.17-.31.4-.55.69-.74.29-.19.6-.28.94-.28Z"/>
      <path class="cls-4" d="m48.08,90.49c-.88,0-1.57-.24-2.06-.73s-.74-1.17-.74-2.06.23-1.62.69-2.12c.46-.5,1.09-.75,1.9-.75s1.37.22,1.8.66.64,1.05.64,1.82v.72h-3.52c.02.42.14.75.38.99s.56.36.99.36c.33,0,.64-.03.93-.1s.6-.18.92-.33v1.15c-.26.13-.54.23-.83.29-.3.06-.66.1-1.08.1Zm-.21-4.6c-.32,0-.56.1-.74.3-.18.2-.28.48-.31.85h2.09c0-.37-.1-.65-.29-.85-.19-.2-.44-.3-.75-.3Z"/>
      <path class="cls-4" d="m53.35,90.49c-.64,0-1.14-.25-1.51-.75-.37-.5-.55-1.19-.55-2.07s.19-1.59.56-2.09c.37-.5.89-.75,1.54-.75s1.21.27,1.57.8h.05c-.08-.41-.11-.77-.11-1.09v-1.75h1.49v7.6h-1.14l-.29-.71h-.06c-.34.54-.85.81-1.55.81Zm.52-1.19c.38,0,.66-.11.84-.33s.27-.6.29-1.13v-.16c0-.59-.09-1.01-.27-1.26-.18-.25-.47-.38-.88-.38-.33,0-.59.14-.77.42-.19.28-.28.69-.28,1.23s.09.94.28,1.21c.19.27.45.4.79.4Z"/>
      <path class="cls-4" d="m57.98,83.53c0-.49.27-.73.81-.73s.81.24.81.73c0,.23-.07.41-.2.54-.14.13-.34.19-.61.19-.54,0-.81-.24-.81-.73Zm1.55,6.87h-1.49v-5.46h1.49v5.46Z"/>
      <path class="cls-4" d="m63.5,89.31c.26,0,.57-.06.94-.17v1.11c-.37.17-.83.25-1.37.25-.6,0-1.03-.15-1.3-.45-.27-.3-.41-.75-.41-1.36v-2.63h-.71v-.63l.82-.5.43-1.15h.95v1.16h1.53v1.12h-1.53v2.63c0,.21.06.37.18.47.12.1.28.15.47.15Z"/>
      <path class="cls-4" d="m68.11,90.49c-.88,0-1.57-.24-2.06-.73s-.74-1.17-.74-2.06.23-1.62.69-2.12c.46-.5,1.09-.75,1.9-.75s1.37.22,1.8.66.64,1.05.64,1.82v.72h-3.52c.02.42.14.75.38.99s.56.36.99.36c.33,0,.64-.03.93-.1s.6-.18.92-.33v1.15c-.26.13-.54.23-.83.29-.3.06-.66.1-1.08.1Zm-.21-4.6c-.32,0-.56.1-.74.3-.18.2-.28.48-.31.85h2.09c0-.37-.1-.65-.29-.85-.19-.2-.44-.3-.75-.3Z"/>
      <path class="cls-4" d="m73.38,90.49c-.64,0-1.14-.25-1.51-.75-.37-.5-.55-1.19-.55-2.07s.19-1.59.56-2.09c.37-.5.89-.75,1.54-.75.69,0,1.21.27,1.57.8h.05c-.08-.41-.11-.77-.11-1.09v-1.75h1.49v7.6h-1.14l-.29-.71h-.06c-.34.54-.85.81-1.55.81Zm.52-1.19c.38,0,.66-.11.84-.33.18-.22.27-.6.29-1.13v-.16c0-.59-.09-1.01-.27-1.26-.18-.25-.47-.38-.88-.38-.33,0-.59.14-.77.42-.18.28-.28.69-.28,1.23s.09.94.28,1.21c.19.27.45.4.8.4Z"/>
    </g>
  </g>
  <g>
    <path class="cls-2" d="m12.5,42.23C12.5,21.52,29.29,4.73,50,4.73c20.71,0,37.5,16.79,37.5,37.5s-16.79,37.5-37.5,37.5S12.5,62.94,12.5,42.23"/>
    <g>
      <path class="cls-4" d="m27.88,22.2c1.19.81,1.9,1.72,2.12,2.73.22,1.01-.05,2.07-.82,3.2-.75,1.11-1.65,1.75-2.67,1.92-1.03.17-2.14-.15-3.33-.96-1.18-.8-1.88-1.71-2.1-2.72-.22-1.01.05-2.08.81-3.2.77-1.13,1.66-1.77,2.67-1.93,1.01-.16,2.12.16,3.31.98Zm-3.31,4.87c1.37.93,2.38.92,3.03-.03.33-.48.41-.96.23-1.42-.17-.46-.61-.93-1.32-1.41-.71-.48-1.31-.72-1.81-.71-.5,0-.91.25-1.23.72-.65.96-.29,1.91,1.1,2.85Z"/>
      <path class="cls-4" d="m34.96,21.94l-1.83,1.36-5.1-6.88,4.07-3.01,1.11,1.49-2.24,1.66.97,1.31,2.06-1.53,1.11,1.49-2.06,1.53,1.92,2.58Z"/>
      <path class="cls-4" d="m41.18,18.56l-2.14.79-2.98-8.03,4.75-1.76.65,1.74-2.61.97.57,1.53,2.41-.89.65,1.74-2.41.89,1.12,3.02Z"/>
      <path class="cls-4" d="m45.9,17.28l-.99-8.51,2.31-.27.99,8.51-2.31.27Z"/>
      <path class="cls-4" d="m55.53,10.65c-.54-.08-1,.08-1.37.48-.37.4-.61.99-.73,1.78-.24,1.63.26,2.54,1.5,2.72.38.05.75.06,1.11,0s.74-.13,1.12-.22l-.29,1.94c-.75.21-1.58.25-2.47.12-1.28-.19-2.21-.7-2.78-1.55-.57-.84-.76-1.96-.55-3.37.13-.88.41-1.62.83-2.24.43-.62.98-1.06,1.65-1.32s1.43-.34,2.27-.21c.92.13,1.76.46,2.54.98l-.97,1.7c-.29-.19-.59-.36-.88-.51-.3-.15-.63-.25-.99-.3Z"/>
      <path class="cls-4" d="m59.01,18.6l3.42-7.85,2.13.93-3.42,7.85-2.13-.93Z"/>
      <path class="cls-4" d="m67.5,23.93l.7-1.51-2.14-1.77-1.36.96-1.96-1.62,7.64-4.84,2.38,1.97-3.31,8.43-1.95-1.61Zm1.54-3.27l.61-1.32c.13-.3.31-.67.53-1.13.22-.46.39-.79.49-.98-.15.13-.42.34-.79.63s-1.12.83-2.25,1.64l1.4,1.16Z"/>
      <path class="cls-4" d="m70.22,26.88l7.31-4.47,1.21,1.97-5.71,3.5,1.72,2.81-1.59.98-2.93-4.79Z"/>
    </g>
    <g>
      <path class="cls-4" d="m21.07,54.86c-.5.17-.99.19-1.47.06-.48-.12-.9-.39-1.28-.8-.38-.41-.67-.94-.89-1.59-.18-.54-.29-1.01-.34-1.4-.05-.39-.04-.82.02-1.28l1.96-.65c-.07.49-.1.98-.07,1.47.03.49.11.93.23,1.3.11.33.24.55.41.66.16.11.33.14.51.08.11-.04.2-.1.26-.19.06-.09.11-.22.15-.38.04-.16.09-.58.16-1.26.06-.61.17-1.08.3-1.43.14-.34.33-.62.58-.85s.58-.4.98-.54c.75-.25,1.42-.17,2.02.23.6.41,1.06,1.08,1.38,2.04.28.84.37,1.76.27,2.77l-1.92-.11c.1-.88.05-1.59-.13-2.14-.1-.29-.21-.48-.36-.57-.14-.1-.29-.12-.44-.07-.16.05-.28.18-.35.39-.07.21-.15.73-.24,1.57-.08.8-.26,1.4-.53,1.8s-.68.68-1.23.86Z"/>
      <path class="cls-4" d="m22.61,62.35l-1.32-1.9,5.49-3.8-1.19-1.72,1.56-1.08,3.7,5.34-1.56,1.08-1.19-1.71-5.49,3.8Z"/>
      <path class="cls-4" d="m30.76,70.21l.64-1.53-2.21-1.69-1.32,1.01-2.02-1.54,7.44-5.14,2.45,1.88-2.97,8.55-2.01-1.54Zm1.41-3.33l.56-1.34c.12-.3.28-.68.49-1.15.2-.47.36-.8.46-.99-.15.14-.4.36-.76.66-.36.3-1.09.88-2.19,1.73l1.45,1.11Z"/>
      <path class="cls-4" d="m39.79,74.56l-2.18-.77,2.21-6.3-1.97-.69.63-1.79,6.12,2.15-.63,1.79-1.97-.69-2.21,6.3Z"/>
      <path class="cls-4" d="m46.49,75.93l.58-8.55,2.32.16-.58,8.55-2.32-.16Z"/>
      <path class="cls-4" d="m58.17,72.58c.09.52.03,1.01-.17,1.46s-.53.83-1,1.14c-.46.31-1.03.52-1.71.63-.56.09-1.04.13-1.44.11-.39-.02-.81-.09-1.26-.22l-.33-2.04c.47.15.95.25,1.44.3.49.05.93.04,1.33-.02.34-.06.58-.16.72-.3s.19-.31.16-.49c-.02-.12-.07-.21-.15-.29-.08-.08-.19-.15-.35-.21-.16-.07-.56-.19-1.21-.36-.59-.16-1.05-.33-1.36-.53-.31-.19-.56-.43-.75-.71-.18-.28-.31-.63-.38-1.05-.13-.78.06-1.43.55-1.96s1.24-.87,2.23-1.04c.88-.14,1.8-.09,2.78.17l-.41,1.88c-.85-.23-1.56-.3-2.14-.21-.3.05-.5.14-.62.26-.12.13-.16.27-.14.42.03.17.14.3.33.4.19.1.7.27,1.51.49.78.21,1.35.48,1.69.81.34.33.56.78.66,1.35Z"/>
      <path class="cls-4" d="m65.79,72.25l-2.09,1-2.89-6.02-1.89.91-.82-1.71,5.85-2.81.82,1.71-1.88.9,2.89,6.02Z"/>
      <path class="cls-4" d="m71.28,68.67l-5.57-6.51,1.77-1.51,5.57,6.51-1.77,1.51Z"/>
      <path class="cls-4" d="m72.79,57.07c-.32.45-.38.93-.19,1.44s.61,1,1.25,1.46c1.34.95,2.38.92,3.1-.1.22-.31.39-.64.51-.99.12-.35.22-.72.31-1.09l1.6,1.13c-.16.77-.49,1.52-1.02,2.25-.75,1.05-1.63,1.65-2.64,1.78-1.01.13-2.09-.22-3.25-1.04-.72-.51-1.26-1.1-1.62-1.76s-.5-1.35-.43-2.07c.07-.72.35-1.43.84-2.12.54-.75,1.21-1.36,2.03-1.82l1.08,1.63c-.3.17-.59.36-.85.56s-.5.45-.71.74Z"/>
      <path class="cls-4" d="m80.87,49c.5.17.91.44,1.22.83.31.38.49.85.54,1.41.06.55-.02,1.16-.24,1.8-.18.54-.37.98-.57,1.33-.2.34-.46.68-.78,1.01l-1.96-.65c.35-.35.67-.73.94-1.14.27-.41.47-.81.59-1.19.11-.33.13-.58.07-.77s-.18-.31-.36-.37c-.11-.04-.22-.04-.32,0-.1.03-.22.1-.35.21-.13.11-.42.41-.88.91-.42.45-.78.77-1.1.96-.31.19-.64.3-.97.33-.33.03-.7-.02-1.1-.15-.75-.25-1.24-.71-1.48-1.4s-.2-1.5.12-2.46c.28-.84.76-1.64,1.44-2.38l1.47,1.24c-.6.64-.99,1.24-1.18,1.8-.09.29-.11.51-.06.67.06.16.16.27.31.32.16.05.33.02.51-.11.18-.12.56-.49,1.14-1.11.55-.6,1.05-.97,1.5-1.12.45-.15.95-.14,1.5.04Z"/>
    </g>
    <g>
      <circle class="cls-4" cx="50" cy="42.23" r="22.35"/>
      <g>
        <rect class="cls-1" x="39.24" y="41.55" width="4.85" height="8.92"/>
        <rect class="cls-1" x="46.8" y="31.99" width="4.85" height="18.47"/>
        <rect class="cls-1" x="54.36" y="37.09" width="4.85" height="13.37"/>
      </g>
      <g>
        <path class="cls-3" d="m54.15,47.93c-.38,0-.75-.15-1.02-.42l-4.32-4.32c-.56-.56-.56-1.47,0-2.04l.67-.66c.27-.27.63-.42,1.02-.42s.75.15,1.02.42l2.64,2.64,7.9-7.9c.27-.27.63-.42,1.02-.42s.75.15,1.02.42l.66.66c.56.56.56,1.47,0,2.04l-9.58,9.58c-.27.27-.63.42-1.02.42Z"/>
        <path class="cls-4" d="m63.07,35.31c.24,0,.48.09.66.28l.66.66c.37.37.37.96,0,1.33l-9.58,9.58c-.18.18-.42.28-.66.28s-.48-.09-.66-.28l-4.32-4.32c-.37-.37-.37-.96,0-1.33l.66-.66c.18-.18.42-.27.66-.27s.48.09.66.28l2.99,2.99,8.26-8.26c.18-.18.42-.28.66-.28m0-1c-.52,0-1,.2-1.37.57l-7.55,7.55-2.29-2.29c-.37-.37-.85-.57-1.37-.57s-1,.2-1.37.57l-.66.66c-.76.76-.76,1.99,0,2.74l4.32,4.32c.37.37.85.57,1.37.57s1-.2,1.37-.57l9.58-9.58c.37-.37.57-.85.57-1.37s-.2-1-.57-1.37l-.66-.66c-.37-.37-.85-.57-1.37-.57h0Z"/>
      </g>
    </g>
  </g>
</svg>