<svg xmlns="http://www.w3.org/2000/svg" viewBox="0 0 100 100"><title>icon-link</title><g id="Layer_2" data-name="Layer 2"><path id="link-icon" d="M30.66,39.08a21.39,21.39,0,0,1,32.91,3.27l-7.48,7.47a11.24,11.24,0,0,0-12.75-6.48,11,11,0,0,0-5.44,3L23.58,60.65A11.15,11.15,0,0,0,39.35,76.42L43.77,72a28.36,28.36,0,0,0,12.57,1.91l-9.75,9.74A21.39,21.39,0,0,1,16.34,53.41ZM53.41,16.34l-9.75,9.74A28.36,28.36,0,0,1,56.23,28l4.42-4.41A11.15,11.15,0,0,1,76.42,39.35L62.1,53.67a11.16,11.16,0,0,1-15.77,0,11.72,11.72,0,0,1-2.42-3.49l-7.48,7.47a20.4,20.4,0,0,0,2.65,3.27,21.41,21.41,0,0,0,30.26,0L83.66,46.59A21.39,21.39,0,0,0,53.41,16.34Z" style="fill:#005eb8"/></g></svg>
