<svg xmlns="http://www.w3.org/2000/svg" viewBox="0 0 100 100">
  <path fill="#ffffff" d="M95.8 51c.2 10.2-3.5 20.6-10 28.7S69.6 93.4 59.2 95.2c-10.4 2-21.5 0-30.6-5.5-9.3-5.3-16.6-14-20-24.2S5 43.9 9 33.7 20.5 14.8 30.3 9.3C35.2 6.6 40.5 5 46 4.1c5.5-.7 11.1-.7 16.6.4 10.9 2.2 21.1 8.6 28 17.5 1.8 2.4 1.5 5.8-.9 7.6s-5.9 1.4-7.7-1c0 0 0-.2-.2-.2C76.7 21.3 69.1 16 60.3 14c-4.3-1-8.7-1.2-13.3-.8-4.4.5-8.7 1.6-12.7 3.8-8 4-14.7 11.1-18.2 19.5-3.6 8.4-4 18.2-1.3 26.9 2.7 8.9 8.7 16.7 16.7 21.7 7.8 5.1 17.6 7.3 27.1 5.8 9.5-1.3 18.4-6 24.7-13.3 6.4-7.3 10.2-16.7 10.4-26.6 0-.5.5-1.1 1.1-1.1.5 0 1 .6 1 1.1z"/>
</svg>