<?xml version="1.0" encoding="UTF-8" standalone="no"?>
<!-- Generator: Adobe Illustrator 23.0.1, SVG Export Plug-In . SVG Version: 6.00 Build 0)  -->

<svg
   xmlns:dc="http://purl.org/dc/elements/1.1/"
   xmlns:cc="http://creativecommons.org/ns#"
   xmlns:rdf="http://www.w3.org/1999/02/22-rdf-syntax-ns#"
   xmlns:svg="http://www.w3.org/2000/svg"
   xmlns="http://www.w3.org/2000/svg"
   xmlns:sodipodi="http://sodipodi.sourceforge.net/DTD/sodipodi-0.dtd"
   xmlns:inkscape="http://www.inkscape.org/namespaces/inkscape"
   version="1.1"
   x="0px"
   y="0px"
   viewBox="0 0 500 500"
   style="enable-background:new 0 0 500 500;"
   xml:space="preserve"
   id="svg3855"
   sodipodi:docname="national-statistics-logo.svg"
   inkscape:version="0.92.4 (33fec40, 2019-01-16)"><metadata
   id="metadata3861"><rdf:RDF><cc:Work
       rdf:about=""><dc:format>image/svg+xml</dc:format><dc:type
         rdf:resource="http://purl.org/dc/dcmitype/StillImage" /><dc:title></dc:title></cc:Work></rdf:RDF></metadata><defs
   id="defs3859" /><sodipodi:namedview
   pagecolor="#ffffff"
   bordercolor="#666666"
   borderopacity="1"
   objecttolerance="10"
   gridtolerance="10"
   guidetolerance="10"
   inkscape:pageopacity="0"
   inkscape:pageshadow="2"
   inkscape:window-width="1853"
   inkscape:window-height="1002"
   id="namedview3857"
   showgrid="false"
   inkscape:pagecheckerboard="true"
   inkscape:snap-bbox="true"
   inkscape:snap-page="true"
   inkscape:zoom="1.632"
   inkscape:cx="250.61275"
   inkscape:cy="246.93627"
   inkscape:window-x="67"
   inkscape:window-y="27"
   inkscape:window-maximized="1"
   inkscape:current-layer="g3852" />
<style
   type="text/css"
   id="style3807">
	.st0{fill:#003C57;}
	.st1{fill:#A8BD3A;}
</style>
<g
   id="Guides_For_Artboard">
</g>
<g
   id="Layer_1">
	<g
   id="g3852">
		<path
   class="st0"
   d="m 356.12,158.29 c -19.83,14.81 -37.11,33.48 -51.54,52.81 -27.35,36.49 -44.37,74.56 -50.43,89.43 -1.75,4.26 -2.56,6.5 -2.56,6.5 l -3.99,11 -10.41,-5.35 c -41.63,-21.44 -73.73,-32.54 -96.52,-38.46 -14.69,-3.79 -25.25,-5.43 -32.44,-6.3 7.91,70.97 68.08,126.12 141.15,126.12 78.45,0 142.06,-63.61 142.06,-142.07 -0.01,-35.91 -13.37,-68.67 -35.32,-93.68"
   id="path3810"
   inkscape:connector-curvature="0"
   style="fill:#003c57" />
		<path
   class="st1"
   d="m 107.3,251.96 c 0,5.41 0.33,10.72 0.91,15.95 6.65,0.8 16.18,2.27 29.15,5.49 -1.33,-6.96 -2.05,-14.12 -2.05,-21.45 0,-0.07 0.01,-0.16 0.01,-0.22 3.34,0.74 6.78,1.56 10.51,2.52 22.37,5.81 52.59,16.18 90.67,34.98 6.31,-14.94 19.55,-43.59 39.85,-73.94 16.69,-24.88 38.2,-51.14 64.89,-71.64 -24.78,-21.04 -56.84,-33.76 -91.89,-33.76 -78.43,0 -142.05,63.61 -142.05,142.07"
   id="path3812"
   inkscape:connector-curvature="0"
   style="fill:#a8bd3a" />
		<path
   class="st0"
   d="M 1,250 C 1,112.48 112.48,1.02 249.99,1.01 387.51,1.02 499,112.48 499,250 499,387.53 387.51,498.99 249.99,498.99 112.48,498.99 1,387.53 1,250 M 77.9,77.91 C 33.84,121.95 6.61,182.78 6.61,250 c 0,67.23 27.23,128.05 71.29,172.09 44.06,44.04 104.87,71.28 172.09,71.28 67.22,0 128.05,-27.23 172.1,-71.28 44.05,-44.04 71.3,-104.86 71.3,-172.09 0,-67.22 -27.25,-128.05 -71.3,-172.09 C 378.04,33.87 317.21,6.64 249.99,6.64 182.77,6.64 121.95,33.87 77.9,77.91"
   id="path3814"
   inkscape:connector-curvature="0"
   style="fill:#003c57" />
		<path
   class="st0"
   d="m 30.9,285.68 c -1.33,-7.56 -1.04,-13.79 0.17,-17.57 l 9.26,1.85 c -0.82,2.34 -1.36,7.08 -0.62,11.33 1.01,5.74 4.52,9.1 8.77,8.36 10.09,-1.76 2.75,-23.7 19.21,-26.59 9.22,-1.61 18.28,5.16 20.48,17.69 1.21,6.84 0.55,12.33 -0.52,15.52 l -8.28,-1.8 c 0.8,-2.42 1.4,-6.34 0.71,-10.28 -0.93,-5.35 -4.32,-8.41 -8.4,-7.71 -10.17,1.79 -1.86,24.63 -19.75,27.76 -9.76,1.71 -18.8,-5.87 -21.03,-18.56"
   id="path3816"
   inkscape:connector-curvature="0"
   style="fill:#003c57" />
		<polygon
   class="st0"
   points="113.62,346.35 106.38,350.27 100.4,339.24 59.25,361.56 52.5,349.11 93.63,326.78 87.65,315.75 94.89,311.82 "
   id="polygon3818"
   style="fill:#003c57" />
		<path
   class="st0"
   d="m 112.59,423.5 5.02,-12.17 -14.57,-13.12 -11.57,6.3 -10.11,-9.11 52.98,-26.37 10.18,9.14 -20.63,55.47 z m 16.15,-36.27 c 1.67,-3.78 3.35,-6.37 3.35,-6.37 l -0.13,-0.1 c 0,0 -2.33,1.89 -6.02,3.95 l -16.77,9.56 11.78,10.59 z"
   id="path3820"
   inkscape:connector-curvature="0"
   style="fill:#003c57" />
		<polygon
   class="st0"
   points="205.71,411.19 202.58,418.81 190.95,414.06 173.21,457.38 160.1,452.02 177.84,408.68 166.22,403.92 169.33,396.3 "
   id="polygon3822"
   style="fill:#003c57" />
		
			<rect
   x="202.52"
   y="435.51001"
   transform="matrix(0.1047,-0.9945,0.9945,0.1047,-234.1651,625.0037)"
   class="st0"
   width="55.029999"
   height="14.08"
   id="rect3824"
   style="fill:#003c57" />
		<path
   class="st0"
   d="m 287.35,469.23 c -7.56,1.35 -13.8,1.1 -17.59,-0.1 l 1.83,-9.27 c 2.35,0.8 7.08,1.34 11.33,0.57 5.75,-1.03 9.1,-4.57 8.34,-8.82 -1.81,-10.08 -23.74,-2.63 -26.7,-19.1 -1.65,-9.23 5.08,-18.32 17.61,-20.57 6.86,-1.25 12.34,-0.6 15.54,0.46 l -1.76,8.29 c -2.41,-0.79 -6.35,-1.38 -10.29,-0.68 -5.36,0.96 -8.4,4.36 -7.67,8.46 1.82,10.15 24.63,1.76 27.85,19.63 1.74,9.76 -5.8,18.83 -18.49,21.13"
   id="path3826"
   inkscape:connector-curvature="0"
   style="fill:#003c57" />
		<polygon
   class="st0"
   points="347.64,386.13 351.63,393.36 340.61,399.4 363.19,440.42 350.78,447.24 328.2,406.24 317.2,412.29 313.23,405.07 "
   id="polygon3828"
   style="fill:#003c57" />
		<polygon
   class="st0"
   points="372.92,362.52 411.79,401.46 401.83,411.4 362.95,372.48 "
   id="polygon3830"
   style="fill:#003c57" />
		<path
   class="st0"
   d="m 449.15,350.07 c -8.27,15.19 -24.58,16.52 -37.73,9.36 -12.94,-7.05 -20.92,-21.51 -12.66,-36.7 2.99,-5.49 6.26,-9 9.55,-10.84 l 5.3,6.34 c -1.57,1.07 -3.62,2.95 -5.38,6.2 -4.9,8.99 1.59,17.35 10.16,22.02 8.52,4.63 19.11,4.76 23.71,-3.68 1.76,-3.26 2.08,-5.34 2.12,-7.61 l 8.85,1 c 0.17,3.55 -0.97,8.48 -3.92,13.91"
   id="path3832"
   inkscape:connector-curvature="0"
   style="fill:#003c57" />
		<path
   class="st0"
   d="m 469.67,287.52 c -1.19,7.59 -3.48,13.37 -5.84,16.58 l -8.16,-4.78 c 1.53,-1.95 3.57,-6.23 4.25,-10.52 0.9,-5.76 -1.33,-10.08 -5.6,-10.75 -10.11,-1.59 -10.27,21.55 -26.78,18.95 -9.24,-1.47 -15.62,-10.81 -13.65,-23.38 1.09,-6.85 3.49,-11.84 5.52,-14.5 l 7.24,4.38 c -1.53,2.02 -3.38,5.55 -4,9.49 -0.84,5.37 1.36,9.36 5.47,10 10.2,1.6 9.73,-22.65 27.66,-19.84 9.8,1.56 15.9,11.65 13.89,24.37"
   id="path3834"
   inkscape:connector-curvature="0"
   style="fill:#003c57" />
		<path
   class="st0"
   d="m 99.95,179.24 -44.62,11.65 c -3.32,0.89 -6.44,1.26 -6.44,1.26 l -0.05,0.16 c 0,0 3.08,0.89 6.23,2.07 l 34.39,12.89 -3.06,8.17 -51.56,-19.33 3.45,-9.21 42.05,-11.17 c 3.72,-1 6.56,-1.3 6.56,-1.3 l 0.05,-0.16 c 0,0 -3.03,-0.8 -6.12,-1.94 l -32.51,-12.2 3.08,-8.23 51.56,19.32 z"
   id="path3836"
   inkscape:connector-curvature="0"
   style="fill:#003c57" />
		<path
   class="st0"
   d="m 140.96,125.49 -14.64,-6.08 -15.04,15.83 6.81,14.3 -7.05,7.43 -24.41,-54.2 6.72,-7.08 55.38,21.61 z m -39.04,-17.22 c -4.07,-1.77 -6.54,-3.35 -6.54,-3.35 l -0.1,0.13 c 0,0 1.7,2.39 3.67,6.36 l 9.41,18.88 12.85,-13.51 z"
   id="path3838"
   inkscape:connector-curvature="0"
   style="fill:#003c57" />
		<polygon
   class="st0"
   points="166.73,45.81 169.57,51.37 157.17,57.71 179.4,101.19 170.07,105.97 147.83,62.48 135.49,68.79 132.65,63.23 "
   id="polygon3840"
   style="fill:#003c57" />
		
			<rect
   x="206.71001"
   y="34.130001"
   transform="matrix(0.9805,-0.1967,0.1967,0.9805,-7.9885,42.9139)"
   class="st0"
   width="10.56"
   height="55.060001"
   id="rect3842"
   style="fill:#003c57" />
		<path
   class="st0"
   d="m 269.24,87.57 c -17.26,-1.96 -23.44,-15.71 -21.67,-31.3 1.75,-15.5 10.86,-27.61 28.12,-25.66 17.25,1.97 23.34,15.79 21.59,31.28 -1.77,15.59 -10.78,27.63 -28.04,25.68 m 5.73,-50.68 c -10.57,-1.19 -15.36,9.78 -16.56,20.28 -1.18,10.42 0.72,22.16 11.61,23.4 10.91,1.23 15.29,-9.8 16.48,-20.21 1.17,-10.5 -0.95,-22.26 -11.53,-23.47"
   id="path3844"
   inkscape:connector-curvature="0"
   style="fill:#003c57" />
		<path
   class="st0"
   d="m 346.07,114.73 -4.33,-45.92 c -0.34,-3.42 -0.2,-6.57 -0.2,-6.57 l -0.14,-0.08 c 0,0 -1.39,2.9 -3.04,5.81 l -18.26,31.88 -7.58,-4.33 27.36,-47.79 8.55,4.89 4.27,43.29 c 0.4,3.83 0.23,6.68 0.23,6.68 l 0.14,0.09 c 0,0 1.27,-2.87 2.91,-5.72 l 17.24,-30.14 7.65,4.38 -27.36,47.79 z"
   id="path3846"
   inkscape:connector-curvature="0"
   style="fill:#003c57" />
		<path
   class="st0"
   d="m 392.76,164.04 8.35,-13.5 -13.23,-17.41 -15.24,4.43 -6.2,-8.17 57.5,-15.4 5.9,7.78 -30.25,51.26 z m 23.29,-35.8 c 2.39,-3.73 4.36,-5.92 4.36,-5.92 l -0.1,-0.13 c 0,0 -2.64,1.3 -6.88,2.61 l -20.18,6.28 11.29,14.86 z"
   id="path3848"
   inkscape:connector-curvature="0"
   style="fill:#003c57" />
		<polygon
   class="st0"
   points="421.13,215.65 414.17,217.98 405.66,190.53 458.26,174.24 460.85,183.46 415.23,197.42 "
   id="polygon3850"
   style="fill:#003c57" />
	<path
   style="opacity:1;fill:#ffffff;fill-opacity:1;fill-rule:nonzero;stroke:none;stroke-width:0.12254902;stroke-miterlimit:4;stroke-dasharray:none;stroke-opacity:1;paint-order:stroke markers fill"
   d="M 238.60294,492.70809 C 169.45126,489.90433 103.66898,456.30602 59.96866,401.47059 30.919546,365.01958 13.30927,322.05661 8.1039746,274.93873 7.5972344,270.35176 7.3049574,260.55561 7.3269982,248.89706 7.3566818,233.19586 7.5792857,228.59213 8.7195153,220.09804 12.418802,192.54036 19.381388,168.79639 30.594908,145.49808 36.61111,132.99824 40.229703,126.63245 47.750254,115.31863 84.14992,60.559421 141.44821,22.785194 206.12745,10.907557 c 15.47733,-2.842242 25.32083,-3.6658941 43.81128,-3.6658941 23.76693,0 39.8083,1.9818284 61.27451,7.5701471 17.99322,4.684196 31.35245,9.753738 48.40686,18.369375 68.59147,34.651413 116.93095,99.897905 129.8566,175.274695 2.74473,16.00607 3.10908,20.85308 3.10908,41.3603 0,24.13087 -1.32689,36.29522 -6.18258,56.67892 -22.0934,92.74605 -97.24818,164.52733 -190.81496,182.24975 -11.88983,2.25205 -21.70352,3.40908 -31.86275,3.75663 -4.88664,0.16717 -10.12561,0.37987 -11.64216,0.47266 -1.51654,0.0928 -7.58272,-0.0269 -13.48039,-0.26605 z m -4.25029,-22.15049 c 0.1057,-0.41598 5.89633,-54.70026 5.84348,-54.77973 -0.20717,-0.31158 -14.00494,-1.48704 -14.27579,-1.21618 -0.38016,0.38016 -5.64684,49.14598 -5.67879,52.58172 l -0.021,2.2537 3.52329,0.38817 c 1.93781,0.21349 3.93689,0.47709 4.4424,0.58576 1.14075,0.24523 6.11324,0.39567 6.16637,0.18656 z m 54.34767,-1.4253 c 7.61507,-1.70245 13.72771,-6.13713 16.21747,-11.76565 1.54353,-3.48941 1.64001,-9.28093 0.21152,-12.69753 -2.23584,-5.34762 -6.35352,-7.91107 -16.1377,-10.04651 -8.74197,-1.90796 -10.56024,-3.24122 -10.56024,-7.74335 0,-2.97273 2.58081,-5.41575 6.7872,-6.42485 2.83286,-0.67959 7.73155,-0.49234 10.01187,0.3827 0.63109,0.24217 1.11348,-0.81899 1.85567,-4.08217 0.55159,-2.42517 0.83457,-4.57773 0.62883,-4.78346 -0.20573,-0.20574 -3.33776,-0.47551 -6.96005,-0.59949 -12.86502,-0.44034 -21.99928,3.99678 -25.50623,12.39007 -1.26462,3.02667 -1.14647,9.29881 0.23233,12.33388 2.24629,4.94461 4.49003,6.1866 18.18563,10.06639 2.71066,0.7679 4.86453,1.80645 5.79044,2.79204 2.76393,2.94207 1.51902,7.69409 -2.60621,9.94832 -1.5627,0.85393 -3.43532,1.08506 -8.7914,1.08506 h -6.80574 l -0.90331,4.74041 -0.9033,4.74042 1.88797,0.30868 c 5.31677,0.86929 11.64299,0.63433 17.36525,-0.64496 z M 181.50833,437.92892 c 4.39744,-10.78431 8.36536,-20.48252 8.81762,-21.55157 l 0.82227,-1.94373 5.77467,2.38213 c 3.17606,1.31017 5.80712,2.32271 5.8468,2.2501 0.5948,-1.08861 3.3487,-7.99069 3.22325,-8.07841 -0.16081,-0.11245 -34.10899,-13.96006 -36.04745,-14.70392 -0.6383,-0.24494 -1.27974,0.66364 -2.26822,3.21288 -0.75804,1.95492 -1.37825,3.84873 -1.37825,4.20848 0,0.35975 2.35441,1.56432 5.23201,2.67682 2.87761,1.1125 5.35278,2.21813 5.50037,2.45695 0.14761,0.23883 -3.59928,9.87351 -8.32641,21.41041 -4.72713,11.5369 -8.49898,21.26358 -8.38189,21.61484 0.17635,0.52906 12.82982,6.10918 13.10287,5.77831 0.0479,-0.058 3.68492,-8.92897 8.08236,-19.71329 z m 175.78001,6.07777 6.3755,-3.41978 -1.77746,-3.16723 c -7.76257,-13.83198 -20.34226,-37.07091 -20.34226,-37.579 0,-0.34447 1.44761,-1.39744 3.21691,-2.33994 1.7693,-0.9425 4.11776,-2.25253 5.21879,-2.91118 l 2.00187,-1.19753 -1.99013,-3.62003 c -1.09456,-1.99103 -2.20508,-3.62004 -2.46782,-3.62004 -1.12623,0 -34.16536,18.58738 -34.16015,19.21805 0.006,0.71984 3.52562,7.12999 3.91492,7.12999 0.12068,0 2.46263,-1.24081 5.20434,-2.75735 2.7417,-1.51655 5.18795,-2.75183 5.43608,-2.74507 0.24815,0.007 5.4144,9.09762 11.48058,20.20192 6.06618,11.1043 11.13829,20.19804 11.27137,20.2083 0.13307,0.0103 3.11093,-1.52023 6.61746,-3.40111 z m -222.62344,-38.44288 10.19311,-27.46316 -3.21944,-2.93679 c -1.7707,-1.61523 -4.14761,-3.71543 -5.28203,-4.66712 l -2.06258,-1.73032 -26.67702,13.3343 -26.677032,13.33431 4.162304,3.78371 c 6.678548,6.07108 5.948952,5.92869 12.293284,2.39924 l 5.484404,-3.05104 3.3701,2.94112 c 1.85355,1.61761 5.0918,4.54575 7.19611,6.50697 l 3.82601,3.56585 -2.51443,6.02348 -2.51443,6.02348 3.58417,3.1677 c 1.97128,1.74223 4.55203,4.04619 5.73498,5.11991 1.18296,1.07372 2.32149,1.76306 2.5301,1.53187 0.20859,-0.2312 4.96617,-12.77878 10.57239,-27.88351 z m 272.75589,0.80213 4.87979,-4.90858 -19.74662,-19.74661 -19.74661,-19.74662 -4.90858,4.87979 c -2.69971,2.68388 -4.90857,5.16037 -4.90857,5.50331 0,0.81972 38.10046,38.92728 38.92004,38.92728 0.34692,0 2.82667,-2.20886 5.51055,-4.90857 z M 266.19976,393.24102 c 17.88867,-2.2328 33.52861,-7.06712 48.99632,-15.14483 35.83145,-18.71227 62.05011,-51.79638 71.96931,-90.81476 3.28606,-12.92614 4.26191,-21.01351 4.26191,-35.32065 0,-14.29971 -0.97984,-22.42825 -4.24713,-35.23284 -4.13008,-16.18594 -10.72853,-30.86119 -19.97444,-44.42402 -3.94186,-5.78231 -10.12056,-13.68711 -10.91838,-13.96855 -2.17371,-0.7668 -30.71851,26.2807 -41.30654,39.13984 -25.89431,31.44858 -50.6955,74.45185 -64.46507,111.77724 -1.61622,4.38113 -3.00249,8.05542 -3.08059,8.16511 -0.0781,0.10968 -4.92358,-2.28428 -10.76774,-5.31992 -30.97127,-16.08741 -68.56317,-31.11129 -94.57182,-37.79632 -2.35907,-0.60635 -4.36694,-1.15636 -4.46194,-1.22224 -0.41157,-0.28543 -1.94904,-13.79999 -1.95992,-17.228 l -0.012,-3.769 4.13603,0.92545 c 2.27482,0.509 9.23714,2.39321 15.47182,4.18712 21.9601,6.31862 43.60314,14.65525 70.11465,27.00729 6.0437,2.81583 11.09953,5.00872 11.23516,4.87308 0.13564,-0.13563 1.98009,-4.10268 4.09879,-8.81566 14.73965,-32.78785 36.20455,-67.97761 56.87996,-93.24956 11.87895,-14.51986 27.53423,-30.26316 39.22568,-39.44621 l 4.77728,-3.75232 -2.63267,-2.34245 c -4.78774,-4.25996 -18.98397,-13.2796 -27.10918,-17.22395 -20.59309,-9.99684 -39.90132,-14.42387 -62.96147,-14.43592 -47.39424,-0.0248 -91.9944,24.08412 -118.44801,64.02779 -8.46697,12.78472 -16.60632,31.88877 -19.84033,46.56767 -4.56512,20.72076 -4.56608,42.4474 -0.003,63.11275 3.09681,14.02419 10.34444,31.53545 18.27319,44.15056 11.18741,17.79983 28.27528,34.66727 46.36307,45.76499 17.93767,11.00562 39.03756,18.02714 60.909,20.26899 5.85461,0.6001 23.7468,0.32579 30.0478,-0.46068 z m 166.25341,-30.0602 c 7.92358,-1.67875 13.43468,-6.27176 17.59181,-14.66121 1.77993,-3.59204 2.60113,-6.13013 2.84166,-8.78274 l 0.33829,-3.73074 -2.99114,-0.37989 c -1.64513,-0.20894 -3.74942,-0.50011 -4.67619,-0.64706 -1.49032,-0.23629 -1.68574,-0.0742 -1.69104,1.40256 -0.009,2.58134 -2.62343,7.59528 -5.0885,9.75964 -4.76621,4.18478 -12.13256,4.20181 -20.28948,0.0469 -3.42126,-1.7427 -8.90618,-7.0913 -10.22928,-9.97503 -2.35154,-5.12525 -0.98852,-11.45788 3.4137,-15.86009 l 2.25577,-2.25577 -2.5484,-3.04379 c -1.40163,-1.67406 -2.96022,-3.04377 -3.46354,-3.04377 -1.70687,0 -7.26204,6.45424 -9.54232,11.08668 -6.25103,12.6991 -2.84656,25.49106 9.04206,33.97459 4.49274,3.20596 9.9176,5.5707 14.5507,6.34278 4.68016,0.77992 5.82491,0.75448 10.4859,-0.23303 z m -351.947851,-12.79374 19.894301,-10.79432 0.84746,1.68034 c 0.4661,0.92418 1.79979,3.41059 2.96377,5.52536 l 2.11631,3.84502 3.6379,-1.93897 c 2.00083,-1.06644 3.63788,-2.17847 3.63788,-2.47119 0,-0.29271 -4.18153,-8.25126 -9.29229,-17.68566 l -9.292292,-17.15345 -3.422169,1.9071 c -1.882194,1.04889 -3.607414,2.08354 -3.833818,2.29921 -0.226409,0.21567 0.920429,2.79363 2.548536,5.72879 l 2.960184,5.33668 -4.386771,2.3895 c -2.412727,1.31423 -11.624822,6.3139 -20.47133,11.11039 -8.846507,4.79649 -16.084559,8.84649 -16.084559,9 0,0.32182 4.645945,9.01894 5.953939,11.14565 0.482615,0.78471 1.203995,1.30144 1.603067,1.1483 0.399072,-0.15314 9.678019,-5.13587 20.619882,-11.07275 z M 54.853277,303.71169 c 2.934444,-1.03534 6.259002,-3.89821 7.681115,-6.61443 0.500624,-0.95618 1.721254,-4.90557 2.71251,-8.77643 2.259746,-8.82427 3.030868,-10.33342 5.736266,-11.22628 3.125784,-1.0316 6.006446,0.48704 7.748015,4.08464 1.158308,2.39276 1.293652,3.47052 1.025784,8.16856 l -0.308585,5.4121 4.056446,0.91157 c 2.231048,0.50136 4.149492,0.81988 4.263211,0.70783 0.113726,-0.11205 0.451814,-1.25958 0.751318,-2.55007 1.337824,-5.76441 0.102953,-15.324 -2.688033,-20.809 -4.565564,-8.97252 -14.164804,-12.78243 -22.167108,-8.79807 -4.392621,2.1871 -6.475854,5.61155 -8.584566,14.11144 -2.073039,8.3561 -3.91038,11.00469 -7.634021,11.00469 -1.369795,0 -2.931011,-0.49253 -3.848246,-1.21402 -2.998781,-2.35885 -4.698091,-9.43258 -3.609004,-15.02325 0.328204,-1.68478 0.535024,-3.12495 0.459601,-3.20038 -0.07542,-0.0754 -2.169354,-0.56462 -4.653177,-1.08711 -3.609783,-0.75934 -4.61216,-0.79446 -4.995008,-0.17499 -1.776688,2.87473 -1.071848,15.61717 1.224988,22.14593 3.744629,10.6441 13.554613,16.19928 22.828494,12.92727 z m 411.252073,-3.19086 c 2.98942,-6.72223 3.78428,-10.44127 3.7651,-17.61642 -0.0148,-5.54692 -0.24903,-7.24676 -1.32293,-9.60151 -2.99639,-6.57027 -8.61724,-10.45285 -15.17742,-10.48374 -6.67269,-0.0314 -10.24966,2.61739 -15.81598,11.712 -1.71919,2.80893 -3.91723,5.77309 -4.88452,6.58701 -2.30457,1.93916 -5.33738,1.95141 -7.57049,0.0306 -1.45159,-1.2486 -1.72055,-2.00876 -1.94216,-5.48907 -0.22577,-3.54557 -0.0238,-4.53856 1.65075,-8.11704 1.0494,-2.24252 1.90799,-4.15197 1.90799,-4.24325 0,-0.0913 -1.63836,-1.14193 -3.64079,-2.33478 -2.67237,-1.59191 -3.79355,-1.97768 -4.21507,-1.45028 -2.61306,3.26941 -5.62454,13.1862 -5.62454,18.5216 0,11.34261 7.73372,19.77667 17.56068,19.15094 5.41514,-0.34481 8.02779,-2.32172 13.22787,-10.00911 2.27378,-3.36137 4.83971,-6.73199 5.70207,-7.49026 3.51968,-3.09487 8.85644,-0.65155 9.82229,4.49692 0.57002,3.03842 -0.51348,8.26848 -2.51368,12.13375 -0.85302,1.6484 -1.40348,3.14456 -1.22325,3.3248 0.72388,0.72388 7.4083,4.36528 8.045,4.38259 0.37524,0.0102 1.38733,-1.56692 2.24908,-3.50473 z m -48.84318,-83.26158 c 1.66083,-0.55032 3.24802,-1.20603 3.52708,-1.45715 0.27906,-0.25113 -0.75972,-4.39168 -2.3084,-9.20125 -1.54868,-4.80957 -2.72833,-8.83213 -2.62143,-8.93903 0.1069,-0.1069 10.24495,-3.26327 22.52899,-7.01417 12.28405,-3.75089 22.42617,-6.90771 22.53804,-7.01516 0.23937,-0.22989 -2.16369,-8.89751 -2.58306,-9.31688 -0.21414,-0.21414 -52.2631,15.54047 -52.88576,16.0079 -0.0651,0.0488 1.07798,3.94184 2.54015,8.65105 1.46218,4.70921 3.39334,10.97489 4.29146,13.92372 0.89813,2.94884 1.70502,5.36152 1.7931,5.36152 0.0881,0 1.519,-0.45025 3.17983,-1.00055 z M 88.184871,211.49191 c 0.83853,-2.13966 1.316986,-4.09345 1.063242,-4.34175 -0.253738,-0.24831 -8.733407,-3.53289 -18.843701,-7.29906 -10.110294,-3.76619 -18.795956,-7.08486 -19.301471,-7.37484 -0.750897,-0.43073 -0.702432,-0.53064 0.264796,-0.54586 1.638154,-0.0258 48.363838,-12.25487 48.805523,-12.77343 0.88164,-1.03508 3.00143,-7.71816 2.57229,-8.10965 -0.39046,-0.35619 -23.430115,-9.09549 -46.836403,-17.76576 l -4.691344,-1.7378 -1.60743,4.33662 c -0.884088,2.38513 -1.530336,4.39973 -1.436108,4.47687 0.09423,0.0772 7.754044,2.95143 17.021813,6.38731 9.26777,3.43587 17.539829,6.53253 18.382353,6.88147 1.347592,0.55811 0.573646,0.88429 -6.433823,2.7115 -4.381128,1.14238 -14.965031,3.94205 -23.519786,6.22148 l -15.5541,4.14442 -1.744546,4.55593 c -0.959501,2.50576 -1.593232,4.71164 -1.408292,4.90196 0.438125,0.45087 51.367349,19.58451 51.580149,19.37819 0.08923,-0.0865 0.848315,-1.90794 1.686838,-4.0476 z m 326.395869,-63.2508 c 7.98571,-13.55773 14.69921,-25.12624 14.9189,-25.70781 0.26875,-0.71145 -0.54746,-2.34699 -2.49487,-4.99922 l -2.89429,-3.94183 -2.83343,0.81836 c -1.55838,0.4501 -14.4143,3.90396 -28.56872,7.67524 -14.15441,3.77129 -25.94933,6.98316 -26.21093,7.1375 -0.2616,0.15433 0.96387,2.12108 2.72327,4.37054 1.75939,2.24946 3.22776,4.14941 3.26304,4.22211 0.0353,0.0727 3.22158,-0.81512 7.08066,-1.97295 3.85908,-1.15782 7.31944,-2.11344 7.68969,-2.1236 0.37024,-0.0102 3.56514,3.77289 7.09979,8.40678 l 6.42662,8.42524 -4.15163,6.72275 c -2.29857,3.72207 -3.94153,7.00402 -3.6809,7.35294 4.33455,5.80295 6.3424,8.28724 6.68959,8.27694 0.23306,-0.007 6.9575,-11.10526 14.94321,-24.66299 z m -299.55765,5.02993 3.3612,-3.71424 -3.34771,-7.09731 -3.34771,-7.09732 2.32677,-2.51564 c 1.27972,-1.38361 4.63279,-4.89217 7.45128,-7.79681 l 5.12451,-5.28115 7.10339,3.00377 7.10339,3.00378 4.16484,-4.13294 c 2.29067,-2.27311 3.96126,-4.30813 3.71242,-4.52227 -0.59196,-0.5094 -54.294784,-21.410126 -55.011714,-21.410126 -0.765613,0 -7.01962,6.249766 -7.030404,7.025636 -0.01495,1.07702 24.053008,54.24887 24.555488,54.24887 0.26017,0 1.98558,-1.67141 3.83425,-3.71425 z M 367.41493,95.355374 c 7.32024,-12.7794 13.31748,-23.553622 13.3272,-23.942715 0.0224,-0.895992 -6.6097,-4.677788 -7.55207,-4.306403 -0.63055,0.248494 -8.29192,13.305625 -16.64882,28.374259 l -3.1006,5.590805 -2.36274,-24.375799 c -2.22504,-22.955243 -2.43778,-24.412676 -3.65047,-25.008436 -0.70824,-0.347946 -2.71346,-1.469583 -4.45603,-2.492527 l -3.16829,-1.8599 -12.7254,22.196641 c -6.99897,12.208156 -13.23938,23.071183 -13.86758,24.140067 l -1.14219,1.94342 4.0778,2.280435 c 2.56916,1.436758 4.2246,2.040704 4.4746,1.632463 0.21825,-0.356385 4.80858,-8.389504 10.20074,-17.851379 5.39216,-9.461881 10.01072,-17.206138 10.26348,-17.209467 0.25276,-0.0033 0.45956,1.222952 0.45956,2.72507 0,4.656156 4.27729,47.810752 4.75602,47.984622 0.24877,0.0903 1.83099,0.9815 3.51604,1.98033 1.68505,0.99884 3.33946,1.73006 3.67647,1.62494 0.33701,-0.10513 6.60203,-10.64702 13.92228,-23.426426 z m -192.07935,8.292986 4.44098,-2.46289 -7.7376,-15.145427 c -4.25567,-8.329988 -9.21826,-17.962071 -11.02798,-21.404631 -1.80972,-3.442558 -3.29039,-6.404199 -3.29039,-6.581424 0,-0.177225 2.76004,-1.70728 6.13342,-3.400122 l 6.13342,-3.077896 -1.56536,-3.089097 -1.56536,-3.089097 -16.97615,8.696299 c -9.33688,4.782965 -17.09709,8.802457 -17.2449,8.932203 -0.45787,0.401898 2.35974,5.723722 3.03039,5.723722 0.34812,0 3.12111,-1.249631 6.1622,-2.776958 3.04109,-1.527326 5.724,-2.652567 5.96202,-2.500535 0.23803,0.152033 5.25814,9.804926 11.15581,21.450881 5.89767,11.64595 10.99877,21.177472 11.33578,21.181162 0.33701,0.004 2.61119,-1.1016 5.05372,-2.45619 z m 47.02674,-15.997214 c 0.27974,-0.283493 -9.85595,-53.352618 -10.35781,-54.232095 -0.12814,-0.224571 -10.10363,1.965674 -10.42121,2.288111 -0.27921,0.28347 9.54196,51.204774 10.34649,53.645019 0.16245,0.492758 1.61867,0.405828 5.13216,-0.306372 2.69793,-0.546887 5.08311,-1.174485 5.30037,-1.394663 z m 60.49084,-1.686514 c 12.60219,-6.099963 18.58337,-25.646455 12.6777,-41.430748 -5.45667,-14.584285 -27.48061,-19.240486 -39.33276,-8.315556 -5.51123,5.080071 -9.0226,14.75239 -9.00945,24.817189 0.0175,13.439262 5.49911,21.965641 16.43658,25.566481 5.04275,1.660183 15.17521,1.324313 19.22793,-0.637366 z"
   id="path4696"
   inkscape:connector-curvature="0" /><path
   style="opacity:1;fill:#ffffff;fill-opacity:1;fill-rule:nonzero;stroke:none;stroke-width:0.12254902;stroke-miterlimit:4;stroke-dasharray:none;stroke-opacity:1;paint-order:stroke markers fill"
   d="m 102.46938,117.71223 c -3.258872,-6.42304 -5.602622,-11.53724 -5.208331,-11.36489 4.846631,2.11856 22.836841,10.36003 23.024571,10.54775 0.22404,0.22405 -10.82083,12.00819 -11.5779,12.35285 -0.17221,0.0784 -2.97946,-5.11267 -6.23834,-11.53571 z"
   id="path4698"
   inkscape:connector-curvature="0" /><path
   style="opacity:1;fill:#ffffff;fill-opacity:1;fill-rule:nonzero;stroke:none;stroke-width:0.12254902;stroke-miterlimit:4;stroke-dasharray:none;stroke-opacity:1;paint-order:stroke markers fill"
   d="m 266.79359,79.416064 c -4.45164,-1.930478 -6.80048,-5.442121 -7.97622,-11.924871 -1.21949,-6.723936 0.51338,-17.503534 3.71489,-23.109179 6.30144,-11.0334 19.60002,-9.216187 22.94337,3.135145 2.24404,8.290166 0.16587,21.747891 -4.26643,27.628283 -3.4794,4.616174 -9.50347,6.400802 -14.41561,4.270622 z"
   id="path4700"
   inkscape:connector-curvature="0" /><path
   style="opacity:1;fill:#ffffff;fill-opacity:1;fill-rule:nonzero;stroke:none;stroke-width:0.12254902;stroke-miterlimit:4;stroke-dasharray:none;stroke-opacity:1;paint-order:stroke markers fill"
   d="m 399.22274,138.49354 c -2.84875,-3.73928 -4.89123,-6.95925 -4.59559,-7.24495 0.29269,-0.28284 5.21966,-1.95032 10.94883,-3.70551 5.72917,-1.75519 10.92282,-3.45379 11.54145,-3.77466 0.61863,-0.32087 1.23944,-0.46874 1.37958,-0.3286 0.22183,0.22183 -12.70428,20.32195 -13.75195,21.38431 -0.21701,0.22006 -2.70206,-2.62871 -5.52232,-6.33059 z"
   id="path4702"
   inkscape:connector-curvature="0" /><path
   style="opacity:1;fill:#ffffff;fill-opacity:1;fill-rule:nonzero;stroke:none;stroke-width:0.12254902;stroke-miterlimit:4;stroke-dasharray:none;stroke-opacity:1;paint-order:stroke markers fill"
   d="m 114.89089,399.08868 -5.14588,-4.77588 10.02837,-5.76547 c 5.5156,-3.17101 10.21912,-5.84911 10.45225,-5.95133 0.23313,-0.10223 -1.71057,4.56973 -4.31934,10.38213 -2.60877,5.8124 -4.99663,10.63965 -5.30637,10.72722 -0.30973,0.0876 -2.8788,-1.98993 -5.70903,-4.61667 z"
   id="path4704"
   inkscape:connector-curvature="0" /></g>
</g>
</svg>