<?xml version="1.0" encoding="utf-8"?>
<!-- Generator: Adobe Illustrator 24.0.3, SVG Export Plug-In . SVG Version: 6.00 Build 0)  -->
<svg version="1.1" id="Layer_1" xmlns="http://www.w3.org/2000/svg" xmlns:xlink="http://www.w3.org/1999/xlink" x="0px" y="0px"
	 viewBox="0 0 205.5 160.1" style="enable-background:new 0 0 205.5 160.1;" xml:space="preserve">
<style type="text/css">
	.st0{fill:#FFFFFF;}
	.st1{fill:#231F20;}
	.st2{fill:#005EB8;}
</style>
<title>NHS Digital logo_WEB_LEFT</title>
<rect x="4" y="4" class="st0" width="197" height="74"/>
<path class="st1" d="M36.1,106.4h11.2c12.5,0,23.5,4.2,23.5,20.4s-11,20.4-23.5,20.4H36.1V106.4z M44.3,140.8h4.6
	c6.8,0,13.4-5.1,13.4-14s-6.6-14-13.4-14h-4.6V140.8L44.3,140.8z"/>
<path class="st1" d="M76.6,104.2h7.8v7.5h-7.8V104.2z M76.6,117.2h7.8v30.1h-7.8V117.2L76.6,117.2z"/>
<path class="st1" d="M119.1,117.1v27.1c0,8.2-3.3,15.9-15.9,15.9c-3.6,0-7.1-0.6-10.4-2l0.6-6.7c2.4,1.3,6.3,2.6,8.8,2.6
	c8.6,0,9-6.5,9-11.7h-0.1c-1.5,2.6-5,4.8-9.3,4.8c-8.9,0-12.3-7.1-12.3-15.2c0-7.2,3.7-15.6,12.7-15.6c4,0,7.1,1.3,9.2,4.8h0.1v-4.1
	L119.1,117.1L119.1,117.1z M111.3,131.8c0-5.1-2-9.3-6.5-9.3c-5.3,0-7,4.9-7,9.5c0,4.1,2.2,9.1,6.7,9.1
	C109.3,141.1,111.3,136.9,111.3,131.8L111.3,131.8z"/>
<path class="st1" d="M126.1,104.2h7.8v7.5h-7.8V104.2z M126.1,117.2h7.8v30.1h-7.8V117.2L126.1,117.2z"/>
<path class="st1" d="M144.8,122.8H139v-5.7h5.8v-6l7.8-2.5v8.5h7v5.7h-7v14c0,2.6,0.7,5,3.7,5c1.2,0,2.5-0.2,3.6-0.8l0.2,6.2
	c-1.9,0.5-3.8,0.7-5.8,0.7c-6.1,0-9.5-3.8-9.5-9.8L144.8,122.8L144.8,122.8z"/>
<path class="st1" d="M167.4,118.7c3.3-1.5,6.8-2.2,10.4-2.3c9.2,0,13,3.8,13,12.7v3.9c0,3,0.1,5.3,0.1,7.5s0.2,4.4,0.4,6.7h-6.9
	c-0.2-1.5-0.3-3-0.4-4.5H184c-2,3.3-5.5,5.2-9.3,5.2c-5.3,0-10.5-3.2-10.5-8.9c0-4.5,2.2-7.1,5.1-8.6c3-1.5,6.8-1.8,10.1-1.8h4.3
	c0-4.9-2.2-6.5-6.8-6.5c-3.4,0.1-6.6,1.2-9.3,3.3L167.4,118.7z M176.6,142.2c2.2,0,4.2-1,5.5-2.7c1.2-1.8,1.8-4,1.6-6.2h-3.4
	c-3.5,0-8.7,0.6-8.7,5.2C171.6,141.1,173.8,142.2,176.6,142.2z"/>
<path class="st1" d="M197.6,103.4h7.8v43.8h-7.8V103.4z"/>
<path class="st2" d="M197.8,9.8l-4.3,13.3c-4.6-2.1-9.7-3.1-14.8-3c-7.1,0-12.9,1-12.9,6.4c0,9.4,26,5.9,26,26.1
	c0,18.4-17.2,23.2-32.7,23.2c-7-0.2-14-1.3-20.7-3.4l4.2-13.6c3.5,2.3,10.6,3.8,16.5,3.8c5.6,0,14.3-1.1,14.3-7.9
	c0-10.7-26-6.7-26-25.5c0-17.2,15.2-22.3,29.8-22.3C185.5,6.9,193.3,7.8,197.8,9.8 M146.3,8l-13.9,66.6h-17.9l5.9-28.5H99.2
	l-5.9,28.5H75.3L89.2,8h17.9l-5.3,25.5h21.2L128.4,8H146.3L146.3,8z M82.6,8L68.4,74.6H46.2l-14-46.1H32l-9.3,46.1H5.8L20.1,8h22.3
	l13.7,46.2h0.2L65.7,8H82.6z M205.5,0H0v82.8h205.5V0z"/>
</svg>
