<?xml version="1.0" encoding="utf-8"?>
<!-- Generator: Adobe Illustrator 24.0.3, SVG Export Plug-In . SVG Version: 6.00 Build 0)  -->
<svg version="1.1" xmlns="http://www.w3.org/2000/svg" xmlns:xlink="http://www.w3.org/1999/xlink" x="0px" y="0px"
	 viewBox="0 0 466 127.4" style="enable-background:new 0 0 466 127.4;" xml:space="preserve">
<style type="text/css">
	.st0{display:none;}
	.st1{display:inline;}
	.st2{fill:#FFFFFF;}
	.st3{fill:#231F20;}
	.st4{fill:#005EB8;}
</style>
<g id="Layer_2" class="st0">
	<g id="No4SAf.tif" class="st1">
		
			<image style="overflow:visible;" width="550" height="196" id="Layer_0_1_" xlink:href="5157E2C8D7195DFD.png"  transform="matrix(1 0 0 1 -29.6099 -36.2)">
		</image>
	</g>
</g>
<g id="Layer_1">
	<g id="NHS_Digital_logo">
		<title>NHS Digital logo_WEB_LEFT</title>
		<rect x="3.2" y="3.2" class="st2" width="156.8" height="58.9"/>
		<path class="st3" d="M0,84.7h8.9c9.9,0,18.7,3.3,18.7,16.2s-8.8,16.2-18.7,16.2H0V84.7z M6.5,112.1h3.7c5.4,0,10.7-4.1,10.7-11.1
			s-5.3-11.1-10.7-11.1H6.5L6.5,112.1L6.5,112.1z"/>
		<path class="st3" d="M32.2,82.9h6.2v6h-6.2V82.9z M32.2,93.3h6.2v24h-6.2V93.3L32.2,93.3z"/>
		<path class="st3" d="M66.1,93.2v21.6c0,6.5-2.6,12.7-12.7,12.7c-2.9,0-5.7-0.5-8.3-1.6l0.5-5.3c1.9,1,5,2.1,7,2.1
			c6.8,0,7.2-5.2,7.2-9.3h-0.1c-1.2,2.1-4,3.8-7.4,3.8c-7.1,0-9.8-5.7-9.8-12.1c0-5.7,2.9-12.4,10.1-12.4c3.2,0,5.7,1,7.3,3.8H60
			v-3.3L66.1,93.2L66.1,93.2z M59.9,104.9c0-4.1-1.6-7.4-5.2-7.4c-4.2,0-5.6,3.9-5.6,7.6c0,3.3,1.8,7.2,5.3,7.2
			C58.3,112.3,59.9,109,59.9,104.9L59.9,104.9z"/>
		<path class="st3" d="M71.6,82.9h6.2v6h-6.2C71.6,88.9,71.6,82.9,71.6,82.9z M71.6,93.3h6.2v24h-6.2L71.6,93.3L71.6,93.3z"/>
		<path class="st3" d="M86.5,97.7h-4.6v-4.5h4.6v-4.8l6.2-2v6.8h5.6v4.5h-5.6v11.1c0,2.1,0.6,4,2.9,4c1,0,2-0.2,2.9-0.6l0.2,4.9
			c-1.5,0.4-3,0.6-4.6,0.6c-4.9,0-7.6-3-7.6-7.8V97.7L86.5,97.7z"/>
		<path class="st3" d="M104.5,94.5c2.6-1.2,5.4-1.8,8.3-1.8c7.3,0,10.3,3,10.3,10.1v3.1c0,2.4,0.1,4.2,0.1,6s0.2,3.5,0.3,5.3H118
			c-0.2-1.2-0.2-2.4-0.3-3.6l0,0c-1.6,2.6-4.4,4.1-7.4,4.1c-4.2,0-8.4-2.5-8.4-7.1c0-3.6,1.8-5.7,4.1-6.8c2.4-1.2,5.4-1.4,8-1.4h3.4
			c0-3.9-1.8-5.2-5.4-5.2c-2.7,0.1-5.3,1-7.4,2.6L104.5,94.5z M111.8,113.2c1.8,0,3.3-0.8,4.4-2.1c1-1.4,1.4-3.2,1.3-4.9h-2.7
			c-2.8,0-6.9,0.5-6.9,4.1C107.8,112.3,109.6,113.2,111.8,113.2z"/>
		<path class="st3" d="M128.5,82.3h6.2v34.9h-6.2V82.3z"/>
		<path class="st4" d="M157.4,7.8L154,18.4c-3.7-1.7-7.7-2.5-11.8-2.4c-5.7,0-10.3,0.8-10.3,5.1c0,7.5,20.7,4.7,20.7,20.8
			c0,14.6-13.7,18.5-26,18.5c-5.6-0.2-11.1-1-16.5-2.7l3.3-10.8c2.8,1.8,8.4,3,13.1,3c4.5,0,11.4-0.9,11.4-6.3
			c0-8.5-20.7-5.3-20.7-20.3c0-13.7,12.1-17.7,23.7-17.7C147.6,5.5,153.9,6.2,157.4,7.8 M116.4,6.4l-11.1,53H91.1l4.7-22.7H79
			l-4.7,22.7H59.9L71,6.4h14.2L81,26.7h16.9l4.3-20.3H116.4L116.4,6.4z M65.7,6.4l-11.3,53H36.8L25.6,22.7h-0.2l-7.4,36.7H4.6
			L16,6.4h17.7l10.9,36.8h0.2l7.5-36.8H65.7z M163.6,0H0v65.9h163.6V0z"/>
	</g>
	<g>
		<path class="st4" d="M227.6,10.9h6.5v45.2h-6.5V10.9z"/>
		<path class="st4" d="M245,23.1h5.9v5.3h0.1c1.8-3.8,6.2-6,10.8-6c8.6,0,12.4,5.3,12.4,14.2v19.6h-6.1V39c0-7.7-1.7-11.5-7-11.8
			c-6.9,0-10,5.6-10,13.6v15.3H245V23.1z"/>
		<path class="st4" d="M302.2,28h-8.8v18.1c0,3.8,2.3,5.9,5.1,5.9c1.9,0,3.2-0.6,4.1-1.2V56c-1.4,0.4-3.2,0.9-5.2,0.9
			c-6.3,0-10.2-3-10.2-9.6V28h-7.5v-4.9h7.5v-7.6l6.1-1.9v9.6h8.8V28z"/>
		<path class="st4" d="M309.8,23.1h5.7v5.1h0.1c1.6-3.4,5.1-5.9,8.6-5.9c1.8,0,2.7,0.2,4,0.5v5.4c-1.1-0.5-2.3-0.6-3.4-0.6
			c-5.4,0-9,5.2-9,13.5v15h-6.1V23.1z"/>
		<path class="st4" d="M336.6,25.4c3-1.8,6.7-3.1,10.9-3.1c9.5,0,13.3,4.7,13.3,13.7v13.7c0,3.8,0.1,5.5,0.3,6.5h-5.7v-4.3h-0.1
			c-1.4,2-4.7,5.1-10.2,5.1c-7.1,0-12.1-3.1-12.1-10.3c0-8.3,9.1-10.9,15.4-10.9c2.4,0,4.1,0,6.5,0.1c0-5.7-2.1-8.6-8.2-8.6
			c-3.4,0-7.1,1.3-9.6,3.4L336.6,25.4z M354.7,40.4c-1.3,0-2.6-0.1-3.9-0.1c-3.3,0-11.5,0.5-11.5,6.4c0,3.5,3.4,5.4,6.2,5.4
			c6,0,9.2-3.8,9.2-8.7V40.4z"/>
		<path class="st4" d="M371.1,23.1h5.9v5.3h0.1c1.8-3.8,6.2-6,10.8-6c8.6,0,12.4,5.3,12.4,14.2v19.6h-6.1V39c0-7.7-1.7-11.5-7-11.8
			c-6.9,0-10,5.6-10,13.6v15.3h-6.1V23.1z"/>
		<path class="st4" d="M436,54.8c-2.3,0.8-5,2.1-10.4,2.1c-11.7,0-17.1-7.1-17.1-17.9c0-9.8,6.2-16.7,15.5-16.7
			c11,0,14.6,8,14.6,18.7h-23.6c0,6.5,5.1,11,10.9,11c4,0,8.7-2.1,10.2-3.3V54.8z M432.1,36.4c0-5.1-3-9.2-8.2-9.2
			c-6,0-8.4,4.9-8.9,9.2H432.1z"/>
		<path class="st4" d="M464.3,28h-8.8v18.1c0,3.8,2.3,5.9,5.1,5.9c1.9,0,3.2-0.6,4.1-1.2V56c-1.4,0.4-3.2,0.9-5.2,0.9
			c-6.3,0-10.2-3-10.2-9.6V28H442v-4.9h7.5v-7.6l6.1-1.9v9.6h8.8V28z"/>
	</g>
</g>
</svg>
