<svg xmlns="http://www.w3.org/2000/svg" viewBox="0 0 100 100"><title>icon-download-zip</title><g id="Layer_2" data-name="Layer 2"><polygon points="93.17 96.33 6.83 96.33 6.83 2.83 69.33 2.83 93.17 27.5 93.17 96.33" style="fill:#adadad"/><polygon points="69.33 2.83 69.33 27.5 93.17 27.5 69.33 2.83" style="fill:#919191"/><rect x="41.33" y="48.17" width="6" height="7" style="fill:#fff"/><path d="M46.33,44.16h-4v-4h4Zm0-8h-4v-4h4Zm0-8h-4v-4h4Zm0-8h-4V16h4Zm0-8h-4V8h4Z" style="fill:#fff"/><rect x="42.33" y="2" width="4" height="2" style="fill:#fff"/><path d="M46.33,44.16h-4v-4h4Zm0-8h-4v-4h4Zm0-8h-4v-4h4Zm0-8h-4V16h4Zm0-8h-4V8h4Z" style="fill:#fff"/></g></svg>