<?xml version="1.0" standalone="no"?>
<!DOCTYPE svg PUBLIC "-//W3C//DTD SVG 20010904//EN"
 "http://www.w3.org/TR/2001/REC-SVG-20010904/DTD/svg10.dtd">
<svg version="1.0" xmlns="http://www.w3.org/2000/svg"
 width="512.000000pt" height="512.000000pt" viewBox="0 0 512.000000 512.000000"
 preserveAspectRatio="xMidYMid meet">
<metadata>
Created by potrace 1.11, written by Peter Selinger 2001-2013
</metadata>
<g transform="translate(0.000000,512.000000) scale(0.100000,-0.100000)"
fill="#000000" stroke="none">
<path d="M390 3375 l0 -875 2170 0 2170 0 0 875 0 875 -2170 0 -2170 0 0 -875z
m4065 702 c33 -9 72 -20 87 -26 l27 -10 -46 -138 c-25 -76 -46 -139 -47 -140
-1 -1 -33 10 -71 24 -61 23 -88 26 -220 30 -125 3 -158 0 -199 -14 -60 -22
-91 -59 -91 -113 0 -68 42 -97 267 -190 194 -79 278 -191 278 -369 0 -227
-137 -388 -385 -451 -110 -28 -273 -41 -390 -30 -181 18 -345 54 -345 77 0 18
79 273 85 273 2 0 23 -8 47 -19 121 -52 348 -70 463 -36 76 22 124 67 132 122
12 87 -36 138 -181 194 -203 78 -288 137 -332 232 -30 66 -38 137 -24 217 34
195 171 322 405 374 92 21 449 16 540 -7z m-3100 -224 c37 -126 82 -277 100
-338 18 -60 52 -176 76 -257 24 -81 45 -145 47 -143 2 2 48 219 101 482 l97
478 177 3 c157 2 177 1 177 -13 0 -9 -13 -78 -30 -153 -16 -75 -59 -276 -95
-447 -36 -170 -89 -419 -117 -552 l-52 -243 -236 0 -235 0 -144 478 c-79 262
-147 480 -150 484 -4 4 -44 -183 -90 -415 -47 -232 -91 -450 -99 -484 l-14
-63 -180 0 c-140 0 -179 3 -175 13 2 6 71 324 153 705 l148 692 237 0 236 0
68 -227z m1295 217 c0 -5 -23 -121 -51 -257 -28 -136 -52 -252 -52 -258 -1 -6
79 -11 221 -13 122 -1 222 -1 222 1 0 5 97 480 105 515 5 22 7 22 196 22 l191
0 -6 -25 c-11 -41 -286 -1368 -286 -1377 0 -4 -85 -8 -190 -8 -104 0 -190 4
-190 8 0 9 107 531 117 570 l5 22 -224 0 -223 0 -59 -287 c-33 -159 -61 -294
-64 -300 -3 -10 -51 -13 -193 -13 l-189 0 5 23 c14 63 285 1371 285 1378 0 5
86 9 190 9 115 0 190 -4 190 -10z"/>
<path d="M3800 1595 l0 -465 80 0 80 0 0 465 0 465 -80 0 -80 0 0 -465z"/>
<path d="M1247 2043 c-4 -3 -7 -39 -7 -80 l0 -73 85 0 85 0 0 80 0 80 -78 0
c-43 0 -82 -3 -85 -7z"/>
<path d="M2290 1970 l0 -80 85 0 86 0 -3 78 -3 77 -82 3 -83 3 0 -81z"/>
<path d="M390 1563 l0 -436 183 6 c259 9 356 37 443 129 82 84 109 178 102
340 -4 90 -9 114 -35 170 -78 166 -222 227 -540 228 l-153 0 0 -437z m390 273
c211 -108 215 -427 6 -533 -39 -20 -71 -27 -138 -31 l-88 -5 0 298 0 297 93
-4 c62 -3 103 -10 127 -22z"/>
<path d="M2770 1926 c-36 -11 -71 -25 -78 -29 -7 -5 -12 -32 -12 -68 l0 -59
-60 0 -60 0 0 -60 0 -60 60 0 60 0 0 -165 c0 -90 5 -187 11 -215 13 -59 57
-116 106 -136 34 -15 128 -18 182 -8 34 7 37 20 25 95 l-6 36 -47 -5 c-36 -3
-52 0 -71 16 -25 20 -25 22 -28 201 l-3 181 75 0 76 0 0 60 0 60 -75 0 -75 0
0 90 c0 50 -3 90 -7 89 -5 -1 -37 -11 -73 -23z"/>
<path d="M3308 1780 c-26 -4 -71 -16 -99 -25 l-51 -17 6 -52 c3 -28 6 -59 6
-69 0 -15 6 -14 53 9 37 19 72 28 122 32 105 6 143 -16 160 -95 l7 -33 -79 0
c-224 -1 -339 -76 -337 -221 1 -106 76 -177 197 -186 74 -6 152 22 192 68 13
16 26 29 29 29 3 0 6 -19 8 -42 l3 -43 69 0 70 0 -3 215 c-3 276 -14 327 -81
384 -50 42 -177 63 -272 46z m202 -363 c0 -41 -33 -118 -60 -141 -58 -48 -145
-45 -183 6 -38 51 4 119 84 138 59 14 159 12 159 -3z"/>
<path d="M1673 1759 c-52 -26 -88 -66 -122 -139 -23 -49 -26 -67 -26 -170 0
-99 3 -122 23 -165 47 -103 118 -149 227 -149 75 0 118 16 167 62 15 14 30 23
33 20 11 -11 -15 -133 -33 -157 -55 -74 -139 -89 -262 -48 -41 14 -76 24 -77
23 -1 -1 -5 -31 -9 -68 l-7 -66 54 -18 c39 -13 83 -19 159 -19 169 0 252 41
307 153 l28 57 3 348 3 347 -81 0 -80 0 0 -41 0 -42 -21 27 c-36 45 -89 66
-171 66 -54 0 -84 -5 -115 -21z m237 -127 c90 -65 86 -288 -6 -349 -33 -21
-102 -21 -136 1 -15 10 -37 39 -50 64 -42 86 -24 232 36 281 40 34 111 35 156
3z"/>
<path d="M1242 1453 l3 -318 83 -3 82 -3 0 321 0 320 -85 0 -85 0 2 -317z"/>
<path d="M2290 1450 l0 -321 83 3 82 3 3 318 2 317 -85 0 -85 0 0 -320z"/>
</g>
</svg>
