<svg height="212" viewBox="0 0 195 212" width="195" xmlns="http://www.w3.org/2000/svg"><path d="m118.94 178a3.25 3.25 0 0 1 -.53-3.53 3.61 3.61 0 0 1 3.39-2.23h13.91v-33.65a4 4 0 0 1 1-2.35 3.7 3.7 0 0 1 2.49-1.05h15.51v-95.78h-36.71c-1.43 0-2.23-.64-2.24-2.27v-36.74h-109.19a6.12 6.12 0 0 0 -6.15 6.15v172.89a6.2 6.2 0 0 0 6.15 6.16h119.82z" fill="#005728"/><path d="m152.75 34.35h-32.02v-31.95" fill="#005728"/><g fill="none" stroke="#fff" stroke-linecap="round" stroke-linejoin="round" stroke-width="4"><path d="m21.89 36.74h27.06v12.96h-27.06z"/><path d="m22.27 60.75h26.68v12.96h-26.68z"/><path d="m22.27 85.14h26.68v12.96h-26.68z"/><path d="m61.9 36.74h27.06v12.96h-27.06z"/><path d="m62.29 60.75h26.68v12.96h-26.68z"/><path d="m62.29 85.14h26.68v12.96h-26.68z"/><path d="m102.3 60.75h26.68v12.96h-26.68z"/><path d="m102.3 85.14h26.68v12.96h-26.68z"/><path d="m128.98 49.7h-27.06v-12.96h6.72"/></g><text fill="#fff" font-family="ArialMT, Arial" font-size="42" transform="translate(29.9 163)">CSV</text><path d="m128.03 178.6h14.81v-36.86h36.94v36.86h14.8l-33.27 33.27z" fill="#005728"/></svg>