<svg height="212" viewBox="0 0 195 212" width="195" xmlns="http://www.w3.org/2000/svg"><path d="m118.94 177.87a3.26 3.26 0 0 1 -.53-3.54 3.63 3.63 0 0 1 3.39-2.23h13.91v-33.64a4 4 0 0 1 1-2.35 3.7 3.7 0 0 1 2.49-1.05h15.51v-95.78h-36.71c-1.43 0-2.23-.64-2.24-2.27v-36.75h-109.19a6.13 6.13 0 0 0 -6.15 6.15v172.9a6.19 6.19 0 0 0 6.15 6.15h119.82z" fill="#007f3b"/><path d="m152.75 34.22h-32.02v-31.96" fill="#009639"/><text fill="#fff" font-family="ArialMT, Arial" font-size="42" transform="translate(33.36 162.87)">XLS</text><g fill="none" stroke="#fff" stroke-linecap="round" stroke-linejoin="round" stroke-width="4"><path d="m24.92 36.79h78.55"/><path d="m24.92 57.86h99.55"/><path d="m24.92 78.94h99.55"/><path d="m24.92 100.02h99.55"/><path d="m23.72 99.53v-62.74"/><path d="m57.42 99.53v-62.74"/><path d="m91.12 99.53v-62.74"/><path d="m124.82 99.53v-49.91"/></g><path d="m128.03 178.46h14.81v-36.85h36.94v36.85h14.8l-33.27 33.28-33.28-33.28 33.28 33.28" fill="#007f3b"/></svg>