<svg height="212" viewBox="0 0 195 212" width="195" xmlns="http://www.w3.org/2000/svg"><path d="m118.94 177.87a3.26 3.26 0 0 1 -.53-3.54 3.63 3.63 0 0 1 3.39-2.23h13.91v-33.64a4 4 0 0 1 1-2.35 3.7 3.7 0 0 1 2.49-1.05h15.51v-95.78h-36.71c-1.43 0-2.23-.64-2.24-2.27v-36.75h-109.19a6.13 6.13 0 0 0 -6.15 6.15v172.9a6.19 6.19 0 0 0 6.15 6.15h119.82z" fill="#330072"/><path d="m152.75 34.22h-32.02v-31.96" fill="#330072"/><text fill="#fff" font-family="ArialMT, Arial" font-size="42.047039" transform="translate(33.22 163.06)">IMG</text><path d="m125.1 108.99-18.61-26.65-18.62-26.29-18.61 26.29-4.92 7.01-10.89-15.77-12.64 17.88-12.3 17.53h24.94 24.94-.35 9.83z" fill="none" stroke="#fff" stroke-linecap="round" stroke-linejoin="round" stroke-width="4"/><path d="m56.26 46.58a13 13 0 0 1 -13 13 12.74 12.74 0 0 1 -13-13 12.74 12.74 0 0 1 13-13 13 13 0 0 1 13 13z" fill="none" stroke="#fff" stroke-linecap="round" stroke-linejoin="round" stroke-width="4"/><path d="m127.89 178.5h14.84v-36.81h37.01v36.81h14.84l-33.34 33.24z" fill="#330072"/></svg>