<svg height="213" viewBox="0 0 201 213" width="201" xmlns="http://www.w3.org/2000/svg"><g stroke="#687784"><path d="m2.21 181.51v-172.9a6.13 6.13 0 0 1 6.15-6.15h111.17l37 37v142a6.12 6.12 0 0 1 -6.15 6.15h-142.02a6.2 6.2 0 0 1 -6.15-6.1z" fill="#fff" stroke-linecap="round" stroke-linejoin="round" stroke-width="4"/><path d="m156.54 39.48h-37.01v-37.02" fill="none" stroke-linecap="round" stroke-linejoin="round" stroke-width="4"/><path d="m119.53 2.46 37.01 37.02" fill="none" stroke-linecap="round" stroke-linejoin="round" stroke-width="4"/></g><text fill="#687784" font-family="ArialMT, Arial" font-size="42" transform="translate(35.17 165.07)">JAR</text><path d="m139.83 176.66h4.8v-36.85h36.93v36.85h14.81l-33.27 33.27-33.27-33.27z" fill="#fff" stroke="#687784" stroke-miterlimit="10" stroke-width="4"/><path d="m67.75 62.42-24.48 24.48 24.88 24.88" fill="none" stroke="#687784" stroke-linecap="round" stroke-linejoin="round" stroke-width="4"/><path d="m90.83 62.42 24.48 24.48-24.88 24.88" fill="none" stroke="#687784" stroke-linecap="round" stroke-linejoin="round" stroke-width="4"/></svg>