<svg height="213" viewBox="0 0 201 213" width="201" xmlns="http://www.w3.org/2000/svg"><g stroke="#687784"><path d="m2 181.35v-172.9a6.14 6.14 0 0 1 6.11-6.15h111.16l37 37v142a6.13 6.13 0 0 1 -6.15 6.15h-142.01a6.2 6.2 0 0 1 -6.11-6.1z" fill="#fff" stroke-linecap="round" stroke-linejoin="round" stroke-width="4"/><path d="m119.27 2.3 37.02 37.02" fill="none" stroke-linecap="round" stroke-linejoin="round" stroke-width="4"/><path d="m156.29 39.32h-37.02v-37.02" fill="none" stroke-linecap="round" stroke-linejoin="round" stroke-width="4"/></g><text fill="#687784" font-family="ArialMT, Arial" font-size="42" transform="translate(18.58 164.91)">JSON</text><path d="m139.57 176.5h4.8v-36.85h36.94v36.85h14.8l-33.27 33.28-33.27-33.28z" fill="#fff" stroke="#687784" stroke-miterlimit="10" stroke-width="4"/><path d="m67.49 62.27-24.48 24.47 24.89 24.89" fill="none" stroke="#687784" stroke-linecap="round" stroke-linejoin="round" stroke-width="4"/><path d="m90.58 62.27 24.48 24.47-24.89 24.89" fill="none" stroke="#687784" stroke-linecap="round" stroke-linejoin="round" stroke-width="4"/></svg>