<svg height="211.47" viewBox="0 0 194.16 211.47" width="194.16" xmlns="http://www.w3.org/2000/svg"><path d="m118.52 177.61a3.26 3.26 0 0 1 -.53-3.54 3.61 3.61 0 0 1 3.39-2.23h13.91v-33.65a4 4 0 0 1 1-2.35 3.72 3.72 0 0 1 2.49-1h15.51v-95.84h-36.74c-1.43 0-2.23-.65-2.24-2.28v-36.72h-109.16a6.12 6.12 0 0 0 -6.15 6.15v172.9a6.2 6.2 0 0 0 6.15 6.15h119.85z" fill="#d01216"/><path d="m152.32 33.95h-32.01v-31.95" fill="#d01216"/><text fill="#fff" font-family="ArialMT, Arial" font-size="42" transform="translate(35.66 162.61)">PDF</text><path d="m78.43 38.29c-.82-3-3-4.63-4.63-4.36a6.6 6.6 0 0 0 -5.18 3.54c-2.45 5.72 2.73 22.34 3.54 25.33-5.16 15.53-22.88 46.31-31.32 48.2-.27-1.9.82-7.9 12.26-15.25a9.93 9.93 0 0 0 1.63-1.91c-10.08 4.91-22.33 12.26-15 18a9.08 9.08 0 0 0 1.63.82c5.72 2.18 13.9-4.9 21.79-20.7 9-3 16.07-5.18 26.15-6.81 11.17 7.62 18.52 9 23.7 7.08a8.13 8.13 0 0 0 4.36-4.63c-4.09 5.17-13.62 1.63-21.52-3.27 7.08-.82 14.43-1.09 17.7-.27 4.09 1.36 3.82 3.27 3.82 3.54a6 6 0 0 0 0-4.36c-3.27-5.45-18.8-2.18-24.52-1.63-9-5.45-15-15-17.43-21.79 2.18-8.45 4.63-15 3-21.52m-2.41 22.32c-1.09-3.81-2.73-12.52-.28-15.52 5.18 2.72 2.18 9.26.28 15.52m9.24 19.38c-6.24 1.05-10.63 2.69-16.89 5.14a118.56 118.56 0 0 0 7.08-18.8 40.92 40.92 0 0 0 9.81 13.66" fill="#fff"/><path d="m127.61 178.2h14.81v-36.86h36.93v36.86h14.81l-33.27 33.27-33.28-33.27 33.28 33.27" fill="#d01216"/></svg>