<svg height="212" viewBox="0 0 195 212" width="195" xmlns="http://www.w3.org/2000/svg"><path d="m118.94 177.87a3.26 3.26 0 0 1 -.53-3.54 3.63 3.63 0 0 1 3.39-2.23h13.91v-33.64a4 4 0 0 1 1-2.35 3.7 3.7 0 0 1 2.49-1.05h15.51v-95.78h-36.71c-1.43 0-2.23-.64-2.24-2.27v-36.75h-109.19a6.13 6.13 0 0 0 -6.15 6.15v172.9a6.19 6.19 0 0 0 6.15 6.15h119.82z" fill="#d14424"/><path d="m152.75 34.22h-32.02v-31.96" fill="#d14424"/><text fill="#fff" font-family="ArialMT, Arial" font-size="42" transform="translate(32.59 162.87)">PP<tspan letter-spacing="-.01806640625em" x="56.03" y="0">T</tspan></text><path d="m76 38.23a35 35 0 1 0 35.62 35h-35.62z" fill="none" stroke="#fff" stroke-miterlimit="10" stroke-width="4"/><path d="m86.51 39.08h-.4v24.14h24.54a24.14 24.14 0 0 0 -24.14-24.14z" fill="none" stroke="#fff" stroke-miterlimit="10" stroke-width="4"/><path d="m142.84 178.46v-36.85h36.94v36.85h14.8l-33.27 33.28-33.28-33.28" fill="#d14424"/></svg>