<svg height="212" viewBox="0 0 195 212" width="195" xmlns="http://www.w3.org/2000/svg"><path d="m118.89 177.87a3.26 3.26 0 0 1 -.53-3.54 3.63 3.63 0 0 1 3.39-2.23h13.91v-33.64a4 4 0 0 1 1-2.35 3.7 3.7 0 0 1 2.49-1.05h15.55v-95.78h-36.78c-1.43 0-2.23-.64-2.24-2.27v-36.75h-109.16a6.13 6.13 0 0 0 -6.15 6.15v172.9a6.19 6.19 0 0 0 6.15 6.15h119.82z" fill="#425563"/><path d="m152.7 34.22h-32.02v-31.96" fill="#425563"/><text fill="#fff" font-family="ArialMT, Arial" font-size="42" transform="translate(33.72 162.87)">TX<tspan letter-spacing="-.01806640625em" x="53.67" y="0">T</tspan></text><g fill="none" stroke="#fff" stroke-linecap="round" stroke-linejoin="round" stroke-width="4"><path d="m23.6 58.62h102.74"/><path d="m23.6 82.12h102.74"/><path d="m23.6 104.62h45.1"/><path d="m23.6 33.96h65.1"/></g><path d="m127.98 178.46h14.81v-36.85h36.93v36.85h14.81l-33.27 33.28-33.28-33.28 33.28 33.28" fill="#425563"/></svg>