<svg height="212" viewBox="0 0 195 212" width="195" xmlns="http://www.w3.org/2000/svg"><path d="m118.94 177.87a3.26 3.26 0 0 1 -.53-3.54 3.63 3.63 0 0 1 3.39-2.23h13.91v-33.64a4 4 0 0 1 1-2.35 3.7 3.7 0 0 1 2.49-1.05h15.51v-95.78h-36.71c-1.43 0-2.23-.64-2.24-2.27v-36.75h-109.19a6.13 6.13 0 0 0 -6.15 6.15v172.9a6.19 6.19 0 0 0 6.15 6.15h119.82z" fill="#106eb5"/><path d="m152.75 34.22h-32.02v-31.96" fill="#106eb5"/><text fill="#fff" font-family="ArialMT, Arial" font-size="42.484932" transform="matrix(.99 0 0 1 25.22 164.75)">MOV</text><ellipse cx="77.22" cy="74.68" fill="none" rx="40.26" ry="40.72" stroke="#fff" stroke-linecap="round" stroke-linejoin="round" stroke-width="4"/><path d="m65.46 96.64v-43.87l34.09 21.91z" fill="none" stroke="#fff" stroke-linecap="round" stroke-linejoin="round" stroke-width="4"/><path d="m128.03 178.46h14.81v-36.85h36.94v36.85h14.8l-33.27 33.28z" fill="#106eb5"/></svg>