<svg height="213" viewBox="0 0 201 213" width="201" xmlns="http://www.w3.org/2000/svg"><g fill="#fff"><path d="m2 181.35v-172.9a6.13 6.13 0 0 1 6.18-6.15h111.16l37 37v142a6.12 6.12 0 0 1 -6.15 6.15h-142.01a6.19 6.19 0 0 1 -6.18-6.1z" stroke="#687784" stroke-linecap="round" stroke-linejoin="round" stroke-width="4"/><path d="m156.36 39.32h-37.02v-37.02" stroke="#687784" stroke-linecap="round" stroke-linejoin="round" stroke-width="4"/><path d="m119.34 2.3 37.02 37.02" stroke="#687784" stroke-linecap="round" stroke-linejoin="round" stroke-width="4"/></g><text fill="#687784" font-family="ArialMT, Arial" font-size="42" transform="translate(26.44 164.91)"><tspan letter-spacing="-.037109375em">W</tspan><tspan x="38.08" y="0">AR</tspan></text><path d="m139.64 176.5h4.81v-36.85h36.93v36.85h14.81l-33.28 33.28-33.27-33.28z" fill="#fff" stroke="#687784" stroke-miterlimit="10" stroke-width="4"/><path d="m67.56 62.27-24.47 24.47 24.88 24.89" fill="none" stroke="#687784" stroke-linecap="round" stroke-linejoin="round" stroke-width="4"/><path d="m90.65 62.27 24.48 24.47-24.88 24.89" fill="none" stroke="#687784" stroke-linecap="round" stroke-linejoin="round" stroke-width="4"/></svg>