<svg height="212" viewBox="0 0 195 212" width="195" xmlns="http://www.w3.org/2000/svg"><g stroke="#98a4ad" stroke-miterlimit="10" stroke-width="4"><path d="m166.16 142.23h-137.32a10.56 10.56 0 0 1 -10.56-10.56v-108.51a10.55 10.55 0 0 1 10.56-10.56h137.32a10.55 10.55 0 0 1 10.56 10.56v108.51a10.56 10.56 0 0 1 -10.56 10.56z" fill="#fff"/><path d="m18.28 39v-15.84a10.55 10.55 0 0 1 10.56-10.56h137.32a10.55 10.55 0 0 1 10.56 10.56v15.84z" fill="none"/><path d="m18.28 39.01h158.44" fill="none"/><path d="m41.26 113.11h78.78" fill="none"/><path d="m41.26 125.59h37.95" fill="none"/><path d="m131.04 55.32h31.49" fill="none"/><path d="m131.04 79.41h31.49" fill="none"/><path d="m131.04 67.81h31.49" fill="none"/><path d="m131.04 91.01h31.49" fill="none"/><path d="m131.04 102.61h15.75" fill="none"/></g><circle cx="159.99" cy="25.92" fill="#d01216" r="3.21"/><circle cx="146.79" cy="25.92" fill="#ffb81c" r="3.21"/><circle cx="133.58" cy="25.92" fill="#009639" r="3.21"/><path d="m41.96 55.06h76.25v45h-76.25z" fill="#ffe8b4" stroke="#ffb81c" stroke-miterlimit="10" stroke-width="4"/><text fill="#212b32" font-family="ArialMT, Arial" font-size="42" transform="translate(48.67 197.05)">WEB</text></svg>