<svg height="213" viewBox="0 0 201 213" width="201" xmlns="http://www.w3.org/2000/svg"><g fill="#fff"><path d="m2.1 181.51v-172.9a6.13 6.13 0 0 1 6.15-6.15h111.17l37 37v142a6.13 6.13 0 0 1 -6.15 6.15h-142.02a6.2 6.2 0 0 1 -6.15-6.1z" stroke="#687784" stroke-linecap="round" stroke-linejoin="round" stroke-width="4"/><path d="m156.44 39.48h-37.02v-37.02" stroke="#687784" stroke-linecap="round" stroke-linejoin="round" stroke-width="4"/><path d="m119.42 2.46 37.02 37.02" stroke="#687784" stroke-linecap="round" stroke-linejoin="round" stroke-width="4"/></g><text fill="#687784" font-family="ArialMT, Arial" font-size="42" transform="translate(32.33 165.07)">XM<tspan letter-spacing="-.037109375em" x="63" y="0">L</tspan></text><path d="m139.72 176.66h4.8v-36.85h36.94v36.85h14.8l-33.27 33.27-33.27-33.27z" fill="#fff" stroke="#687784" stroke-miterlimit="10" stroke-width="4"/><path d="m67.64 62.42-24.48 24.48 24.88 24.88" fill="none" stroke="#687784" stroke-linecap="round" stroke-linejoin="round" stroke-width="4"/><path d="m90.72 62.42 24.48 24.48-24.88 24.88" fill="none" stroke="#687784" stroke-linecap="round" stroke-linejoin="round" stroke-width="4"/></svg>