<svg height="211.47" viewBox="0 0 194.16 211.47" width="194.16" xmlns="http://www.w3.org/2000/svg"><path d="m118.52 177.61a3.26 3.26 0 0 1 -.53-3.54 3.61 3.61 0 0 1 3.39-2.23h13.91v-33.65a4 4 0 0 1 1-2.35 3.72 3.72 0 0 1 2.49-1h15.51v-95.84h-36.74c-1.43 0-2.23-.65-2.24-2.28v-36.72h-109.16a6.12 6.12 0 0 0 -6.15 6.15v172.9a6.2 6.2 0 0 0 6.15 6.15h119.85z" fill="#212b32"/><path d="m152.32 33.95h-32.01v-31.95" fill="#212b32"/><path d="m127.61 178.2h14.81v-36.86h36.93v36.86h14.81l-33.27 33.27z" fill="#212b32"/><g fill="#fff"><text font-family="ArialMT, Arial" font-size="42" transform="translate(44.73 162.71)">ZI<tspan letter-spacing="-.01806640625em" x="37.32" y="0">P</tspan></text><rect height="6.43" rx="3.22" transform="matrix(-1 0 0 -1 132.02 93.93)" width="20.6" x="55.71" y="43.75"/><rect height="6.43" rx="3.22" transform="matrix(-1 0 0 -1 132.02 123.22)" width="20.6" x="55.71" y="58.39"/><rect height="6.43" rx="3.22" transform="matrix(-1 0 0 -1 132.02 152.52)" width="20.6" x="55.71" y="73.04"/><rect height="6.43" rx="3.22" transform="matrix(-1 0 0 -1 132.02 181.81)" width="20.6" x="55.71" y="87.69"/><rect height="6.43" rx="3.22" transform="matrix(-1 0 0 -1 132.02 214.35)" width="20.6" x="55.71" y="103.96"/><rect height="6.43" rx="3.22" transform="matrix(-1 0 0 -1 178.16 108.58)" width="20.6" x="78.78" y="51.07"/><rect height="6.43" rx="3.22" transform="matrix(-1 0 0 -1 132.02 65.51)" width="20.6" x="55.71" y="29.54"/><rect height="6.43" rx="3.22" transform="matrix(-1 0 0 -1 178.16 80.16)" width="20.6" x="78.78" y="36.86"/><rect height="6.43" rx="3.22" width="12.46" x="78.78" y="22.65"/><rect height="6.43" rx="3.22" transform="matrix(-1 0 0 -1 178.16 137.87)" width="20.6" x="78.78" y="65.72"/><rect height="6.43" rx="3.22" transform="matrix(-1 0 0 -1 178.16 167.16)" width="20.6" x="78.78" y="80.36"/><rect height="6.43" rx="3.22" transform="matrix(-1 0 0 -1 178.16 196.45)" width="20.6" x="78.78" y="95.01"/></g></svg>