<?xml version="1.0" encoding="utf-8"?>
<!-- Generator: Adobe Illustrator 22.1.0, SVG Export Plug-In . SVG Version: 6.00 Build 0)  -->
<svg version="1.1" id="Layer_1" xmlns="http://www.w3.org/2000/svg" xmlns:xlink="http://www.w3.org/1999/xlink" x="0px" y="0px"
	 viewBox="0 0 36 44" style="enable-background:new 0 0 36 44;" xml:space="preserve">
<style type="text/css">
	.st0{fill:#999999;}
	.st1{display:none;}
	.st2{display:inline;fill:#D01317;}
	.st3{display:inline;fill:#FFFFFF;}
	.st4{display:inline;fill:#1D7044;}
	.st5{display:inline;fill:#1D6EB6;}
	.st6{display:inline;fill:#1C6DB5;}
	.st7{display:inline;fill:#525151;}
	.st8{display:inline;fill:#2B579C;}
	.st9{display:inline;fill:none;}
	.st10{font-family:'FrutigerLTStd-Black';}
	.st11{font-size:13.7497px;}
	.st12{display:inline;}
	.st13{display:inline;fill:#D24424;}
	.st14{clip-path:url(#SVGID_2_);fill:#FFFFFF;}
	.st15{clip-path:url(#SVGID_2_);}
	.st16{clip-path:url(#SVGID_4_);fill:#FFFFFF;}
	.st17{display:inline;fill:#1A8C37;}
	.st18{display:inline;fill:#357DC1;}
</style>
<polygon class="st0" points="35.9,44 0.1,44 0.1,0 23.5,0 35.9,12.4 "/>
<g class="st1">
	<polygon class="st2" points="35.9,44 0.1,44 0.1,0 23.5,0 35.9,12.4 	"/>
	<polygon class="st3" points="34,12.4 23.5,12.4 23.5,1.9 	"/>
	<path class="st3" d="M18.2,11c-0.3-1.1-1.1-1.7-1.7-1.6c-0.8,0.1-1.6,0.6-1.9,1.3c-0.9,2.1,1,8.2,1.3,9.3
		c-1.9,5.7-8.4,17-11.5,17.7c-0.1-0.7,0.3-2.9,4.5-5.6c0.2-0.2,0.5-0.5,0.6-0.7C5.8,33.2,1.3,35.9,4,38c0.1,0.1,0.4,0.2,0.6,0.3
		c2.1,0.8,5.1-1.8,8-7.6c3.3-1.1,5.9-1.9,9.6-2.5c4.1,2.8,6.8,3.3,8.7,2.6c0.5-0.2,1.3-0.8,1.6-1.7c-1.5,1.9-5,0.6-7.9-1.2
		c2.6-0.3,5.3-0.4,6.5-0.1c1.5,0.5,1.4,1.2,1.4,1.3c0.1-0.4,0.3-1,0-1.6c-1.2-2-6.9-0.8-9-0.6c-3.3-2-5.5-5.5-6.4-8
		C17.9,15.8,18.8,13.4,18.2,11 M17.3,19.2c-0.4-1.4-1-4.6-0.1-5.7C19.1,14.5,18,16.9,17.3,19.2 M20.7,26.3c-2.3,0.4-3.9,1-6.2,1.9
		c0.7-1.3,2-4.7,2.6-6.9C17.9,23.1,19,24.7,20.7,26.3"/>
</g>
<g class="st1">
	<polygon class="st4" points="35.9,44 0.1,44 0.1,0 23.5,0 35.9,12.4 	"/>
	<polygon class="st3" points="34,12.4 23.5,12.4 23.5,1.9 	"/>
	<rect x="6.1" y="29.6" class="st3" width="5.8" height="8.8"/>
	<rect x="14.9" y="17.1" class="st3" width="5.8" height="21.3"/>
	<rect x="23.7" y="24.1" class="st3" width="5.8" height="14.4"/>
</g>
<g class="st1">
	<polygon class="st5" points="35.9,44 0.1,44 0.1,0 23.5,0 35.9,12.4 	"/>
	<polygon class="st3" points="34,12.4 23.5,12.4 23.5,1.9 	"/>
	<path class="st3" d="M28.4,26.7c0,5.7-4.6,10.4-10.4,10.4S7.6,32.4,7.6,26.7S12.3,16.3,18,16.3S28.4,21,28.4,26.7z"/>
	<polygon class="st6" points="23.5,26.5 19.3,29.5 15,32.5 15,26.5 15,20.6 19.3,23.6 	"/>
</g>
<g class="st1">
	<polygon class="st7" points="35.9,44 0.1,44 0.1,0 23.5,0 35.9,12.4 	"/>
	<polygon class="st3" points="34,12.4 23.5,12.4 23.5,1.9 	"/>
	<rect x="4.3" y="19.3" class="st3" width="27.2" height="3.4"/>
	<rect x="4.3" y="26.9" class="st3" width="27.2" height="3.4"/>
	<rect x="4.3" y="34.6" class="st3" width="13.6" height="3.4"/>
</g>
<g class="st1">
	<polygon class="st8" points="35.9,44 0.1,44 0.1,0 23.5,0 35.9,12.4 	"/>
	<polygon class="st3" points="34,12.4 23.5,12.4 23.5,1.9 	"/>
	<rect x="5" y="7.3" class="st9" width="21.8" height="11.5"/>
	<text transform="matrix(1 0 0 1 5.0164 17.6308)" class="st3 st10 st11">W</text>
	<rect x="4" y="21.6" class="st3" width="28.1" height="3.4"/>
	<rect x="4.2" y="28.4" class="st3" width="28.1" height="3.4"/>
	<rect x="4.2" y="35.2" class="st3" width="13.7" height="3.4"/>
</g>
<g class="st1">
	<polygon class="st12" points="35.9,44 0.1,44 0.1,0 23.5,0 35.9,12.4 	"/>
	<polygon class="st3" points="34,12.4 23.5,12.4 23.5,1.9 	"/>
	<rect x="11" y="13.3" class="st3" width="9.7" height="3.1"/>
	<rect x="11" y="24.1" class="st3" width="9.7" height="3.1"/>
	<rect x="11" y="35" class="st3" width="9.7" height="3.1"/>
	<rect x="15.5" y="18.7" class="st3" width="9.7" height="3.1"/>
	<rect x="15.5" y="7.3" class="st3" width="4.9" height="3.1"/>
	<rect x="15.5" y="29.6" class="st3" width="9.7" height="3.1"/>
</g>
<g class="st1">
	<polygon class="st13" points="35.9,44 0.1,44 0.1,0 23.5,0 35.9,12.4 	"/>
	<polygon class="st3" points="34,12.4 23.5,12.4 23.5,1.9 	"/>
	<g class="st12">
		<defs>
			<path id="SVGID_1_" d="M17.4,27.8H5.9V15.3h11.4V27.8z M17.4,27.8H5.9v12.4h11.4V27.8z M28.8,27.8H17.4v12.4h11.4V27.8z"/>
		</defs>
		<clipPath id="SVGID_2_">
			<use xlink:href="#SVGID_1_"  style="overflow:visible;"/>
		</clipPath>
		<path class="st14" d="M27.4,27.8c0,5.5-4.5,10-10,10s-10-4.5-10-10c0-5.5,4.5-10,10-10S27.4,22.3,27.4,27.8z"/>
		<path class="st15" d="M29.7,27.8c-4.1-0.1-10,0-10,0"/>
		<path class="st15" d="M29.7,27.8c-5,0-10,0-10,0"/>
	</g>
	<g class="st12">
		<defs>
			<rect id="SVGID_3_" x="20.2" y="12.6" width="11.4" height="12.4"/>
		</defs>
		<clipPath id="SVGID_4_">
			<use xlink:href="#SVGID_3_"  style="overflow:visible;"/>
		</clipPath>
		<ellipse transform="matrix(0.1602 -0.9871 0.9871 0.1602 -7.843 41.0724)" class="st16" cx="20.2" cy="25.1" rx="10" ry="10"/>
	</g>
</g>
<g class="st1">
	<polygon class="st17" points="35.9,44 0.1,44 0.1,0 23.5,0 35.9,12.4 	"/>
	<polygon class="st3" points="34,12.4 23.5,12.4 23.5,1.9 	"/>
	<rect x="4.2" y="23.8" class="st3" width="7.1" height="3.4"/>
	<rect x="4.3" y="30.1" class="st3" width="7" height="3.4"/>
	<rect x="4.3" y="36.5" class="st3" width="7" height="3.4"/>
	<rect x="14.7" y="23.8" class="st3" width="7.1" height="3.4"/>
	<rect x="14.8" y="30.1" class="st3" width="7" height="3.4"/>
	<rect x="14.8" y="36.5" class="st3" width="7" height="3.4"/>
	<rect x="25.2" y="23.8" class="st3" width="7.1" height="3.4"/>
	<rect x="4.2" y="17.4" class="st3" width="7.1" height="3.4"/>
	<rect x="14.7" y="17.4" class="st3" width="7.1" height="3.4"/>
	<rect x="25.2" y="17.4" class="st3" width="7.1" height="3.4"/>
	<rect x="25.3" y="30.1" class="st3" width="7" height="3.4"/>
	<rect x="25.3" y="36.5" class="st3" width="7" height="3.4"/>
</g>
<g class="st1">
	<polygon class="st18" points="35.9,44 0.1,44 0.1,0 23.5,0 35.9,12.4 	"/>
	<polygon class="st3" points="34,12.6 23.5,12.6 23.5,2.1 	"/>
	<polygon class="st3" points="32.2,38.7 26.9,31.1 21.6,23.6 16.3,31.1 14.9,33.1 11.8,28.6 8.2,33.7 4.7,38.7 11.8,38.7 18.9,38.7 
		18.8,38.7 21.6,38.7 	"/>
	<path class="st3" d="M12.6,20.9c0,2-1.6,3.7-3.7,3.7s-3.7-1.6-3.7-3.7s1.6-3.7,3.7-3.7S12.6,18.9,12.6,20.9z"/>
</g>
</svg>
