<svg id="Layer_1" data-name="Layer 1" xmlns="http://www.w3.org/2000/svg" viewBox="0 0 71.9 88"><title>HTML_Option2</title><polygon points="71.9 88 0.4 88 0.4 0 47.14 0 71.9 24.77 71.9 88" style="fill:#fff"/><polygon points="67.48 25.16 46.43 25.16 46.43 4.11 67.48 25.16" style="fill:#fff"/><polygon points="16.18 45.51 23.55 39.32 30.91 33.14 30.91 45.51 30.91 57.87 23.55 51.69 16.18 45.51" style="fill:#687784"/><polygon points="20.57 45.51 27.93 39.32 35.3 33.14 35.3 45.51 35.3 57.87 27.93 51.69 20.57 45.51" style="fill:#fff"/><polygon points="53.79 45.51 46.42 51.69 39.06 57.87 39.06 45.51 39.06 33.14 46.42 39.32 53.79 45.51" style="fill:#687784"/><polygon points="49.4 45.51 42.04 51.69 34.67 57.87 34.67 45.51 34.67 33.14 42.04 39.32 49.4 45.51" style="fill:#fff"/><rect x="42.98" width="3.4" height="28.45" style="fill:#687784"/><rect x="68.1" y="25.16" width="3.4" height="62.84" style="fill:#687784"/><rect width="3.4" height="88" style="fill:#687784"/><rect x="55.54" y="12.61" width="3.4" height="28.51" transform="translate(30.38 84.11) rotate(-90)" style="fill:#687784"/><rect x="34.05" y="50.55" width="3.4" height="71.5" transform="translate(-50.55 122.05) rotate(-90)" style="fill:#687784"/><polygon points="46.7 3.4 46.74 0 0.69 0 0.69 3.4 46.7 3.4" style="fill:#687784"/><polygon points="71.5 29.32 71.5 24.77 46.74 0 45.87 3.55 71.5 29.32" style="fill:#687784"/><path d="M18.75,79V72.68H12.07V79h-2v-14h2v5.84h6.68V65.07h2V79Z" transform="translate(0 0)" style="fill:#687784"/><path d="M27.19,79V66.83H22.85V65.07H33.53v1.76H29.19V79Z" transform="translate(0 0)" style="fill:#687784"/><path d="M48.83,79V67h0L44.17,79h-2L37.59,67h0V79h-2v-14h3.3l4.38,11.61,4.3-11.61h3.3V79Z" transform="translate(0 0)" style="fill:#687784"/><path d="M54.39,79v-14h2V77.28h5.84V79Z" transform="translate(0 0)" style="fill:#687784"/></svg>