<svg id="Layer_1" data-name="Layer 1" xmlns="http://www.w3.org/2000/svg" viewBox="0 0 71.5 88"><title>72x88_2</title><polygon points="71.5 88 0 88 0 0 46.74 0 71.5 24.77 71.5 88" style="fill:#b4bbc1"/><polygon points="67.48 25.16 46.43 25.16 46.43 4.11 67.48 25.16" style="fill:#fff"/><polygon points="16.18 45.51 23.55 39.32 30.91 33.14 30.91 45.51 30.91 57.87 23.55 51.69 16.18 45.51" style="fill:#fff"/><polygon points="20.57 45.51 27.93 39.32 35.3 33.14 35.3 45.51 35.3 57.87 27.93 51.69 20.57 45.51" style="fill:#b4bbc1"/><polygon points="53.79 45.51 46.42 51.69 39.06 57.87 39.06 45.51 39.06 33.14 46.42 39.32 53.79 45.51" style="fill:#fff"/><polygon points="49.4 45.51 42.04 51.69 34.67 57.87 34.67 45.51 34.67 33.14 42.04 39.32 49.4 45.51" style="fill:#b4bbc1"/><path d="M19.51,79V72.68H12.83V79h-2v-14h2v5.84h6.68V65.07h2V79Z" transform="translate(-0.25 0)" style="fill:#fff"/><path d="M28,79V66.83H23.61V65.07H34.29v1.76H30V79Z" transform="translate(-0.25 0)" style="fill:#fff"/><path d="M49.59,79V67h0L44.93,79H43L38.35,67h0V79h-2v-14h3.3L44,76.68l4.3-11.61H51.6V79Z" transform="translate(-0.25 0)" style="fill:#fff"/><path d="M55.15,79v-14h2V77.28H63V79Z" transform="translate(-0.25 0)" style="fill:#fff"/></svg>