<?xml version="1.0" encoding="utf-8"?>
<!-- Generator: Adobe Illustrator 23.0.1, SVG Export Plug-In . SVG Version: 6.00 Build 0)  -->
<svg version="1.1" id="Layer_1" xmlns="http://www.w3.org/2000/svg" xmlns:xlink="http://www.w3.org/1999/xlink" x="0px" y="0px"
	 viewBox="0 0 72 88" style="enable-background:new 0 0 72 88;" xml:space="preserve">
<style type="text/css">
	.st0{fill:#687784;}
	.st1{fill:#FFFFFF;}
	.st2{fill:none;}
	.st3{display:none;fill:#FFFFFF;}
	.st4{font-family:'ArialMT';}
	.st5{font-size:20px;}
	.st6{display:none;}
	.st7{display:inline;fill:#FFFFFF;}
</style>
<polygon class="st0" points="71.5,88 0,88 0,0 46.7,0 71.5,24.8 "/>
<polygon class="st1" points="67.5,25.2 46.4,25.2 46.4,4.1 "/>
<g>
	<polygon class="st1" points="16.2,45.5 23.5,39.3 30.9,33.1 30.9,45.5 30.9,57.9 23.5,51.7 	"/>
	<polygon class="st0" points="20.6,45.5 27.9,39.3 35.3,33.1 35.3,45.5 35.3,57.9 27.9,51.7 	"/>
	<polygon class="st1" points="53.8,45.5 46.4,51.7 39.1,57.9 39.1,45.5 39.1,33.1 46.4,39.3 	"/>
	<polygon class="st0" points="49.4,45.5 42,51.7 34.7,57.9 34.7,45.5 34.7,33.1 42,39.3 	"/>
</g>
<rect x="0.3" y="65.1" class="st2" width="71.2" height="21.2"/>
<text id="XML_x5F_txt" transform="matrix(1 0 0 1 15.3437 79.3936)" class="st3 st4 st5">XML</text>
<g id="Shape_XML" class="st6">
	<path class="st7" d="M15.8,79.4l5.5-7.5l-4.9-6.9h2.3l2.6,3.7c0.5,0.8,0.9,1.3,1.2,1.8c0.3-0.5,0.7-1.1,1.1-1.6l2.9-3.8h2.1l-5,6.7
		l5.4,7.6h-2.3L23,74.3c-0.2-0.3-0.4-0.6-0.6-1c-0.3,0.5-0.5,0.9-0.7,1.1l-3.6,5H15.8z"/>
	<path class="st7" d="M30.5,79.4V65.1h2.9l3.4,10.1c0.3,0.9,0.5,1.7,0.7,2.1c0.2-0.5,0.4-1.3,0.8-2.3l3.4-10h2.5v14.3h-1.8v-12
		l-4.2,12h-1.7l-4.1-12.2v12.2H30.5z"/>
	<path class="st7" d="M47.2,79.4V65.1h1.9v12.6h7.1v1.7H47.2z"/>
</g>
<g id="Shape_JSON">
	<path class="st1" d="M9.8,75.3l1.7-0.2c0,1.1,0.3,1.8,0.6,2.2c0.4,0.4,0.9,0.6,1.5,0.6c0.5,0,0.9-0.1,1.2-0.3
		c0.3-0.2,0.6-0.5,0.7-0.9c0.1-0.4,0.2-1,0.2-1.8v-9.9h1.9v9.8c0,1.2-0.1,2.1-0.4,2.8c-0.3,0.7-0.7,1.2-1.4,1.5
		c-0.6,0.3-1.4,0.5-2.2,0.5c-1.3,0-2.2-0.4-2.9-1.1S9.8,76.8,9.8,75.3z"/>
	<path class="st1" d="M20.1,74.8l1.8-0.2c0.1,0.7,0.3,1.3,0.6,1.8s0.8,0.8,1.4,1.1s1.4,0.4,2.2,0.4c0.7,0,1.4-0.1,1.9-0.3
		s1-0.5,1.2-0.9c0.3-0.4,0.4-0.8,0.4-1.2c0-0.4-0.1-0.8-0.4-1.2c-0.3-0.3-0.7-0.6-1.3-0.8c-0.4-0.1-1.2-0.4-2.5-0.7
		c-1.3-0.3-2.2-0.6-2.8-0.9c-0.7-0.4-1.2-0.8-1.5-1.3c-0.3-0.5-0.5-1.1-0.5-1.8c0-0.7,0.2-1.4,0.6-2c0.4-0.6,1-1.1,1.8-1.4
		c0.8-0.3,1.7-0.5,2.6-0.5c1.1,0,2,0.2,2.8,0.5s1.4,0.8,1.9,1.5s0.7,1.4,0.7,2.3l-1.8,0.1c-0.1-0.9-0.4-1.6-1-2.1
		c-0.6-0.5-1.4-0.7-2.5-0.7c-1.1,0-2,0.2-2.5,0.6s-0.8,0.9-0.8,1.5c0,0.5,0.2,0.9,0.6,1.3c0.4,0.3,1.3,0.7,2.9,1
		c1.5,0.3,2.6,0.7,3.2,0.9c0.8,0.4,1.4,0.9,1.8,1.5c0.4,0.6,0.6,1.3,0.6,2c0,0.8-0.2,1.5-0.7,2.2s-1.1,1.2-1.9,1.6
		c-0.8,0.4-1.7,0.6-2.8,0.6c-1.3,0-2.4-0.2-3.3-0.6c-0.9-0.4-1.6-0.9-2.1-1.7C20.4,76.6,20.2,75.8,20.1,74.8z"/>
	<path class="st1" d="M33.5,72.4c0-2.4,0.6-4.2,1.9-5.6c1.3-1.3,2.9-2,4.9-2c1.3,0,2.5,0.3,3.6,0.9c1.1,0.6,1.9,1.5,2.4,2.6
		c0.6,1.1,0.8,2.4,0.8,3.8c0,1.5-0.3,2.8-0.9,3.9c-0.6,1.1-1.4,2-2.5,2.6c-1.1,0.6-2.2,0.9-3.5,0.9c-1.3,0-2.6-0.3-3.6-1
		c-1.1-0.7-1.9-1.5-2.4-2.7C33.8,74.9,33.5,73.7,33.5,72.4z M35.5,72.4c0,1.7,0.5,3.1,1.4,4.1c0.9,1,2.1,1.5,3.5,1.5
		c1.4,0,2.6-0.5,3.5-1.5c0.9-1,1.4-2.4,1.4-4.3c0-1.2-0.2-2.2-0.6-3.1c-0.4-0.9-1-1.5-1.7-2c-0.8-0.5-1.6-0.7-2.6-0.7
		c-1.3,0-2.5,0.5-3.5,1.4C36,68.8,35.5,70.3,35.5,72.4z"/>
	<path class="st1" d="M49.7,79.4V65.1h1.9l7.5,11.2V65.1h1.8v14.3H59l-7.5-11.2v11.2H49.7z"/>
</g>
<g id="Shape_WAR" class="st6">
	<path class="st7" d="M17,79.4l-3.8-14.3h1.9l2.2,9.4c0.2,1,0.4,2,0.6,2.9c0.4-1.5,0.6-2.4,0.6-2.6l2.7-9.7h2.3l2.1,7.2
		c0.5,1.8,0.9,3.5,1.1,5.1c0.2-0.9,0.4-1.9,0.7-3.1l2.2-9.2h1.9l-3.9,14.3h-1.8l-3-10.9c-0.3-0.9-0.4-1.5-0.4-1.7
		c-0.1,0.7-0.3,1.2-0.4,1.7l-3,10.9H17z"/>
	<path class="st7" d="M31.1,79.4l5.5-14.3h2l5.9,14.3h-2.2l-1.7-4.3h-6l-1.6,4.3H31.1z M35.2,73.5H40l-1.5-4c-0.5-1.2-0.8-2.2-1-3
		c-0.2,0.9-0.4,1.8-0.8,2.7L35.2,73.5z"/>
	<path class="st7" d="M46,79.4V65.1h6.3c1.3,0,2.2,0.1,2.9,0.4c0.7,0.3,1.2,0.7,1.6,1.4c0.4,0.7,0.6,1.4,0.6,2.2c0,1-0.3,1.9-1,2.6
		c-0.7,0.7-1.7,1.1-3,1.3c0.5,0.2,0.9,0.5,1.1,0.7c0.6,0.5,1.1,1.1,1.6,1.9l2.5,3.9h-2.4l-1.9-3c-0.6-0.9-1-1.5-1.4-2
		c-0.4-0.5-0.7-0.8-1-1c-0.3-0.2-0.6-0.3-0.9-0.4c-0.2,0-0.6-0.1-1.1-0.1h-2.2v6.4H46z M47.9,71.4H52c0.9,0,1.5-0.1,2-0.3
		c0.5-0.2,0.9-0.5,1.1-0.9c0.3-0.4,0.4-0.8,0.4-1.3c0-0.7-0.2-1.2-0.7-1.7c-0.5-0.4-1.3-0.7-2.3-0.7h-4.5V71.4z"/>
</g>
<g id="Shaoe_Jar" class="st6">
	<path class="st7" d="M17.6,75.3l1.7-0.2c0,1.1,0.3,1.8,0.6,2.2c0.4,0.4,0.9,0.6,1.5,0.6c0.5,0,0.9-0.1,1.2-0.3
		c0.3-0.2,0.6-0.5,0.7-0.9c0.1-0.4,0.2-1,0.2-1.8v-9.9h1.9v9.8c0,1.2-0.1,2.1-0.4,2.8c-0.3,0.7-0.7,1.2-1.4,1.5
		c-0.6,0.3-1.4,0.5-2.2,0.5c-1.3,0-2.2-0.4-2.9-1.1S17.6,76.8,17.6,75.3z"/>
	<path class="st7" d="M27,79.4l5.5-14.3h2l5.9,14.3h-2.2l-1.7-4.3h-6L29,79.4H27z M31.1,73.5H36l-1.5-4c-0.5-1.2-0.8-2.2-1-3
		c-0.2,0.9-0.4,1.8-0.8,2.7L31.1,73.5z"/>
	<path class="st7" d="M41.9,79.4V65.1h6.3c1.3,0,2.2,0.1,2.9,0.4c0.7,0.3,1.2,0.7,1.6,1.4c0.4,0.7,0.6,1.4,0.6,2.2
		c0,1-0.3,1.9-1,2.6c-0.7,0.7-1.7,1.1-3,1.3c0.5,0.2,0.9,0.5,1.1,0.7c0.6,0.5,1.1,1.1,1.6,1.9l2.5,3.9h-2.4l-1.9-3
		c-0.6-0.9-1-1.5-1.4-2c-0.4-0.5-0.7-0.8-1-1c-0.3-0.2-0.6-0.3-0.9-0.4c-0.2,0-0.6-0.1-1.1-0.1h-2.2v6.4H41.9z M43.8,71.4h4.1
		c0.9,0,1.5-0.1,2-0.3c0.5-0.2,0.9-0.5,1.1-0.9c0.3-0.4,0.4-0.8,0.4-1.3c0-0.7-0.2-1.2-0.7-1.7c-0.5-0.4-1.3-0.7-2.3-0.7h-4.5V71.4z
		"/>
</g>
</svg>
