<?xml version="1.0" encoding="utf-8"?>
<!-- Generator: Adobe Illustrator 23.0.4, SVG Export Plug-In . SVG Version: 6.00 Build 0)  -->
<svg version="1.1" id="Layer_1" xmlns="http://www.w3.org/2000/svg" xmlns:xlink="http://www.w3.org/1999/xlink" x="0px" y="0px"
	 viewBox="0 0 240 240" style="enable-background:new 0 0 240 240;" xml:space="preserve">
<style type="text/css">
	.st0{fill:none;stroke:#005EB8;stroke-width:4;stroke-miterlimit:10;}
	.st1{fill-rule:evenodd;clip-rule:evenodd;fill:#005EB8;}
</style>
<circle class="st0" cx="120.4" cy="119.7" r="95.8"/>
<path id="path28" class="st1" d="M89.5,167.4V97.2H66.2v70.2H89.5z M77.9,87.5c8.1,0,13.2-5.3,13.2-12.2
	c-0.3-6.9-5.1-12.2-13.2-12.2s-13.2,5.3-13.2,12.2C64.9,82.2,70,87.5,77.9,87.5z"/>
<path id="path30" class="st1" d="M102.5,167.4h23.3v-39.3c0-1.9,0.2-3.8,0.8-5.6c1.8-4.3,5.6-8.6,11.9-8.6c8.4,0,11.9,6.3,11.9,16
	v37.5h23.3v-40.4c0-21.6-11.4-31.7-26.9-31.7c-12.7,0-18.3,7.1-21.3,11.9h0.2V97.2h-23.3C102.7,103.8,102.5,167.4,102.5,167.4z"/>
</svg>
