<?xml version="1.0" encoding="utf-8"?>
<!-- Generator: Adobe Illustrator 23.0.1, SVG Export Plug-In . SVG Version: 6.00 Build 0)  -->
<svg version="1.1" id="Layer_1" xmlns="http://www.w3.org/2000/svg" xmlns:xlink="http://www.w3.org/1999/xlink" x="0px" y="0px"
	 viewBox="0 0 45.8 53.4" style="enable-background:new 0 0 45.8 53.4;" xml:space="preserve">
<style type="text/css">
	.st0{fill:#218183;}
</style>
<g>
	<path class="st0" d="M18.1,31.1v12.2H6.8v-9.7c0-5.2,0.6-9,1.9-11.4c1.6-3.1,4.2-5.5,7.8-7.1l2.6,4.1c-2.1,0.9-3.7,2.2-4.7,4
		c-1,1.8-1.6,4.4-1.7,7.8H18.1z M36.3,31.1v12.2H25v-9.7c0-5.2,0.6-9,1.9-11.4c1.6-3.1,4.2-5.5,7.8-7.1l2.6,4.1
		c-2.1,0.9-3.7,2.2-4.7,4c-1,1.8-1.6,4.4-1.7,7.8H36.3z"/>
</g>
</svg>
