<?xml version="1.0" encoding="UTF-8" standalone="no"?>
<svg xmlns="http://www.w3.org/2000/svg" xmlns:cc="http://creativecommons.org/ns#" xmlns:dc="http://purl.org/dc/elements/1.1/" xmlns:inkscape="http://www.inkscape.org/namespaces/inkscape" xmlns:rdf="http://www.w3.org/1999/02/22-rdf-syntax-ns#" xmlns:sodipodi="http://sodipodi.sourceforge.net/DTD/sodipodi-0.dtd" xmlns:svg="http://www.w3.org/2000/svg" fill="#3f525f" height="100" version="1.1" viewBox="0 0 100 100" width="100" x="0px" y="0px">
  <g transform="translate(0,-952.36218)">
    <path d="M 19,6 C 11.855832,6 6,11.85583 6,19 6,26.14417 11.855832,32 19,32 26.144168,32 32,26.14417 32,19 32,11.85583 26.144168,6 19,6 z m 0,6 c 3.901527,0 7,3.09847 7,7 0,3.90153 -3.098473,7 -7,7 -3.901527,0 -7,-3.09847 -7,-7 0,-3.90153 3.098473,-7 7,-7 z M 71,32 C 65.32588,32 61.227946,34.13238 58,36.75 57.875637,35.264382 56.490806,33.994953 55,34 l -16,0 c -1.570753,1.57e-4 -2.999843,1.429247 -3,3 l 0,54 c 1.57e-4,1.570753 1.429247,2.999843 3,3 l 17,0 c 1.570753,-1.57e-4 2.999843,-1.429247 3,-3 l 0,-30 c 0,-2.3286 0.747795,-4.52795 1.78125,-5.96875 C 61.814705,53.59055 62.94095,53 64,53 l 2,0 c 1.05905,0 2.185295,0.59055 3.21875,2.03125 C 70.252205,56.47205 71,58.6714 71,61 l 0,30 c 1.57e-4,1.570753 1.429247,2.999843 3,3 l 17,0 c 1.570753,-1.57e-4 2.999843,-1.429247 3,-3 l 0,-10 c 0.02241,-1.584938 -1.414904,-3.042726 -3,-3.042726 -1.585096,0 -3.022415,1.457788 -3,3.042726 l 0,7 -11,0 0,-27 C 77,57.4562 75.952295,54.12245 74.09375,51.53125 72.235205,48.94015 69.372949,47 66,47 l -2,0 c -3.372949,0 -6.235205,1.94015 -8.09375,4.53125 C 54.047705,54.12245 53,57.4562 53,61 l 0,11 c -0.104072,-0.0054 -0.208428,-0.0054 -0.3125,0 -1.570984,0.08155 -2.926091,1.585307 -2.84427,3.156277 C 49.925051,76.727247 51.429044,78.082094 53,78 l 0,2 c -0.104072,-0.0054 -0.208428,-0.0054 -0.3125,0 -1.570984,0.08155 -2.926091,1.585307 -2.84427,3.156277 C 49.925051,84.727247 51.429044,86.082094 53,86 l 0,2 -11,0 0,-48 10,0 0,4 c -6.13e-4,1.23396 0.842572,2.424024 2.006937,2.832573 1.164365,0.408549 2.566278,0.0062 3.336813,-0.957573 C 60.670709,41.72705 63.880255,38 71,38 77.993061,38 81.928755,39.7617 84.375,42.625 86.821245,45.4883 88,49.9737 88,56 l 0,15 c -0.02241,1.584938 1.414904,3.042726 3,3.042726 1.585096,0 3.022415,-1.457788 3,-3.042726 L 94,56 C 94,49.2049 92.723398,43.1501 88.9375,38.71875 85.151602,34.2874 79.078368,32 71,32 z M 10.6875,34 C 9.2236588,34.15343 7.9921284,35.528161 8,37 l 0,54 c 1.571e-4,1.570753 1.4292466,2.999843 3,3 l 17,0 c 1.570753,-1.57e-4 2.999843,-1.429247 3,-3 l 0,-54 c -1.57e-4,-1.570753 -1.429247,-2.999843 -3,-3 -5.758741,-9e-6 -11.578046,0 -17.3125,0 z M 14,40 l 11,0 0,32 c -0.104072,-0.0054 -0.208428,-0.0054 -0.3125,0 -1.570984,0.08155 -2.926091,1.585307 -2.84427,3.156277 C 21.925051,76.727247 23.429044,78.082094 25,78 l 0,2 c -0.104072,-0.0054 -0.208428,-0.0054 -0.3125,0 -1.570984,0.08155 -2.926091,1.585307 -2.84427,3.156277 C 21.925051,84.727247 23.429044,86.082094 25,86 l 0,2 -11,0 z" display="inline" fill="#3f525f" fill-opacity="1" marker="none" overflow="visible" stroke="none" style="text-indent:0;text-transform:none;direction:ltr;block-progression:tb;baseline-shift:baseline;color:#3f525f;enable-background:accumulate;" transform="translate(0,952.36218)" visibility="visible"/>
  </g>
</svg>
