<?xml version="1.0" standalone="no"?>
<!DOCTYPE svg PUBLIC "-//W3C//DTD SVG 20010904//EN"
 "http://www.w3.org/TR/2001/REC-SVG-20010904/DTD/svg10.dtd">
<svg version="1.0" xmlns="http://www.w3.org/2000/svg"
 width="225.000000pt" height="225.000000pt" viewBox="0 0 225.000000 225.000000"
 preserveAspectRatio="xMidYMid meet">

<g transform="translate(0.000000,225.000000) scale(0.100000,-0.100000)"
fill="#000000" stroke="none">
<path d="M1008 2019 c-384 -56 -685 -337 -765 -714 -22 -105 -19 -281 6 -389
71 -299 295 -548 584 -647 216 -74 466 -63 673 31 194 88 366 263 451 460 58
134 68 188 68 365 0 185 -16 258 -87 402 -169 341 -558 547 -930 492z m347
-203 c289 -98 482 -349 502 -651 21 -316 -177 -616 -479 -726 -121 -44 -240
-56 -360 -36 -176 30 -298 96 -421 227 -118 125 -183 273 -194 442 -24 355
199 664 548 758 110 30 293 23 404 -14z"/>
<path d="M1305 1591 c-69 -31 -95 -72 -108 -169 -1 -8 -71 -50 -156 -95 l-154
-80 -36 20 c-20 11 -50 24 -68 27 -65 15 -155 -31 -188 -95 -19 -36 -19 -122
-1 -157 44 -84 151 -120 237 -78 l37 17 166 -83 c148 -74 166 -85 166 -108 0
-40 42 -103 85 -127 47 -26 122 -30 163 -9 117 61 137 207 39 293 -58 51 -150
57 -210 13 -15 -12 -34 -20 -41 -18 -8 2 -80 35 -160 73 -194 93 -195 88 15
198 l162 85 31 -19 c39 -24 125 -25 173 -2 19 9 46 33 60 54 62 93 28 215 -71
260 -52 23 -90 23 -141 0z"/>
</g>
</svg>
