<?xml version="1.0" encoding="utf-8"?>
<!-- Generator: Adobe Illustrator 23.0.4, SVG Export Plug-In . SVG Version: 6.00 Build 0)  -->
<svg version="1.1" id="Layer_1" xmlns="http://www.w3.org/2000/svg" xmlns:xlink="http://www.w3.org/1999/xlink" x="0px" y="0px"
	 viewBox="0 0 240 240" style="enable-background:new 0 0 240 240;" xml:space="preserve">
<style type="text/css">
	.st0{fill:none;stroke:#005EB8;stroke-width:4;stroke-miterlimit:10;}
	.st1{fill:#005EB8;}
</style>
<circle class="st0" cx="120.4" cy="119.7" r="95.8"/>
<path class="st1" d="M99.1,170.4c44.4,0,68.7-36.9,68.7-68.7v-3c4.8-3.4,9-7.7,12.1-12.7c-4.4,2-9.1,3.3-13.9,3.8
	c5-3,8.8-7.8,10.6-13.4c-4.7,2.9-10,4.8-15.4,5.8c-4.5-4.9-11-7.7-17.7-7.6c-13.4,0-24.2,10.9-24.2,24.2c0,1.9,0.2,3.7,0.5,5.6
	c-19.4-1-37.5-10.2-49.7-25.2c-2.1,3.7-3.2,7.9-3.3,12.1c0.1,8.1,4.1,15.7,10.8,20.2c-3.8-0.1-7.5-1.1-10.8-3v0.2
	c0,11.5,8.2,21.4,19.4,23.7c-2.1,0.5-4.2,0.8-6.3,0.8c-1.5,0-3.1-0.2-4.6-0.5c3,9.9,12.1,16.6,22.5,16.7c-8.5,6.7-19.1,10.4-30,10.4
	c-1.9,0-3.9,0-5.8-0.2C73,166.7,86,170.5,99.1,170.4"/>
</svg>
