<?xml version="1.0" encoding="iso-8859-1"?>
<!-- Generator: Adobe Illustrator 18.0.0, SVG Export Plug-In . SVG Version: 6.00 Build 0)  -->
<!DOCTYPE svg PUBLIC "-//W3C//DTD SVG 1.1//EN" "http://www.w3.org/Graphics/SVG/1.1/DTD/svg11.dtd">
<svg version="1.1" id="Capa_1" xmlns="http://www.w3.org/2000/svg" xmlns:xlink="http://www.w3.org/1999/xlink" x="0px" y="0px"
	 viewBox="0 0 447.859 447.859" style="enable-background:new 0 0 447.859 447.859;" xml:space="preserve">
<g>
	<path d="M148.757,319.82c-17.082,0-30.979,13.897-30.979,30.979s13.897,30.979,30.979,30.979s30.979-13.897,30.979-30.979
		S165.839,319.82,148.757,319.82z M148.757,368.778c-9.914,0-17.979-8.065-17.979-17.979s8.065-17.979,17.979-17.979
		s17.979,8.065,17.979,17.979S158.67,368.778,148.757,368.778z"/>
	<path d="M239.852,338.723c0,23.598,19.198,42.796,42.797,42.796s42.797-19.198,42.797-42.796s-19.198-42.797-42.797-42.797
		S239.852,315.124,239.852,338.723z M282.649,308.926c16.43,0,29.797,13.367,29.797,29.797c0,16.43-13.367,29.796-29.797,29.796
		s-29.797-13.367-29.797-29.796C252.852,322.292,266.219,308.926,282.649,308.926z"/>
	<path d="M222.861,242.721c-11.962,0-21.694,9.732-21.694,21.694s9.732,21.694,21.694,21.694c11.962,0,21.694-9.732,21.694-21.694
		S234.823,242.721,222.861,242.721z M222.861,273.109c-4.794,0-8.694-3.9-8.694-8.694s3.9-8.694,8.694-8.694
		c4.793,0,8.694,3.9,8.694,8.694S227.654,273.109,222.861,273.109z"/>
	<path d="M141.763,287.43c0-14.051-11.432-25.482-25.483-25.482s-25.482,11.431-25.482,25.482s11.431,25.483,25.482,25.483
		S141.763,301.481,141.763,287.43z M116.281,299.913c-6.883,0-12.482-5.6-12.482-12.483c0-6.883,5.6-12.482,12.482-12.482
		c6.883,0,12.483,5.6,12.483,12.482C128.763,294.313,123.164,299.913,116.281,299.913z"/>
	<path d="M381.647,111.695c-0.301-1.048-7.495-25.918-18.94-48.63c-8.023-15.912-23.263-27.243-40.768-30.313
		c-9.019-1.579-18.333-2.663-27.78-3.248l1.042-3.76c0.857-3.093-0.672-6.348-3.599-7.664C268.857,7.853,247.457,1.9,227.998,0.383
		c-22.152-1.726-41.2,2.383-56.606,12.214c-15.437,9.851-27.202,25.436-34.969,46.32c-6.822,18.344-10.42,40.317-10.696,65.311
		c-0.036,3.206,2.272,5.959,5.435,6.484l8.954,1.486c-1.657,17.771-1.78,36.307-0.364,55.278l-30.882,27.777L95.462,203.18
		c-1.598-1.44-3.806-1.996-5.896-1.483c-2.09,0.512-3.791,2.024-4.543,4.04C72.73,238.651,65.96,271.343,65.96,297.787
		c0,82.75,67.322,150.072,150.072,150.072c82.749,0,150.072-67.322,150.072-150.072c0-26.375-6.736-58.977-18.969-91.798
		c-0.751-2.016-2.451-3.53-4.541-4.042c-2.086-0.512-4.297,0.042-5.896,1.48l-13.15,11.83l-31.434-28.272
		c-2.471-2.224-6.223-2.224-8.693,0l-1.133,1.019c-0.583-5.828-1.314-11.366-2.199-16.554c2.313-1.545,5.95-3.777,10.87-6.214
		c8.397-4.158,22.363-9.779,41.204-12.943c11.799-1.984,22.847-7.878,31.105-16.596c9.76-10.296,15.961-16.826,16.684-17.569
		c0.417-0.409,0.781-0.877,1.079-1.393C381.911,115.208,382.134,113.389,381.647,111.695z M178.385,23.556
		c24.013-15.323,60.37-13.815,102.783,4.151l-4.691,16.931l-41.707-6.924c-3.292-0.546-6.442,1.475-7.329,4.678l-11.28,40.737
		l-41.714-6.919c-3.28-0.545-6.44,1.474-7.328,4.677l-11.287,40.743l-16.984-2.819C140.359,72.63,154.308,38.921,178.385,23.556z
		 M287.766,200.559l31.434,28.272c2.471,2.224,6.223,2.223,8.693,0l10.29-9.256c9.654,28.264,14.92,55.74,14.92,78.212
		c0,75.582-61.49,137.072-137.072,137.072S78.96,373.369,78.96,297.787c0-22.54,5.296-50.105,15.005-78.461l10.553,9.503
		c2.471,2.226,6.224,2.227,8.696,0.002l31.433-28.272l31.433,28.272c2.472,2.224,6.223,2.223,8.694,0l31.424-28.271l31.441,28.273
		c2.473,2.222,6.223,2.223,8.693-0.001L287.766,200.559z M330.008,139.473c-39.764,6.676-60.333,23.388-61.189,24.096
		c-1.831,1.514-2.689,3.906-2.24,6.239c1.662,8.619,2.857,18.406,3.571,29.113l-18.163,16.336l-31.442-28.273
		c-2.472-2.222-6.223-2.222-8.694,0.001l-31.423,28.271l-27.375-24.622c-1.674-19.357-1.708-38.252-0.085-56.302l6.503,1.079
		c0.359,0.06,0.716,0.089,1.07,0.088c2.875,0,5.468-1.912,6.259-4.765l11.288-40.743l41.715,6.919
		c3.28,0.545,6.441-1.474,7.328-4.678l11.28-40.737l41.706,6.923c3.289,0.545,6.44-1.475,7.328-4.677l3.164-11.421
		c9.909,0.505,19.673,1.586,29.088,3.235c13.48,2.364,25.22,11.097,31.403,23.36c6.912,13.717,12.298,28.616,15.327,37.724
		c-21.267-0.484-74.063,0.235-114.095,16.784c-10.584,4.375-21.482,6.885-32.39,7.459c-3.585,0.188-6.338,3.248-6.15,6.833
		c0.183,3.469,3.052,6.159,6.486,6.159c0.115,0,0.23-0.003,0.347-0.009c12.384-0.651,24.723-3.487,36.674-8.427
		c34.339-14.195,80.317-15.96,103.319-15.838c-2.191,2.309-4.525,4.771-6.785,7.155C347.5,133.437,339.039,137.954,330.008,139.473z
		"/>
	<path d="M246.124,88.618l19,1c0.116,0.006,0.232,0.009,0.348,0.009c3.433,0,6.303-2.69,6.485-6.159
		c0.188-3.585-2.564-6.644-6.149-6.833l-19-1c-3.565-0.188-6.645,2.565-6.833,6.149S242.539,88.429,246.124,88.618z"/>
</g>
<g>
</g>
<g>
</g>
<g>
</g>
<g>
</g>
<g>
</g>
<g>
</g>
<g>
</g>
<g>
</g>
<g>
</g>
<g>
</g>
<g>
</g>
<g>
</g>
<g>
</g>
<g>
</g>
<g>
</g>
</svg>
