<?xml version="1.0" encoding="utf-8"?>
<!-- Generator: Adobe Illustrator 24.1.2, SVG Export Plug-In . SVG Version: 6.00 Build 0)  -->
<svg version="1.1" id="Layer_1" xmlns="http://www.w3.org/2000/svg" xmlns:xlink="http://www.w3.org/1999/xlink" x="0px" y="0px"
	 viewBox="0 0 500 250" style="enable-background:new 0 0 500 250;" xml:space="preserve">
<style type="text/css">
	.st0{fill:#FFFFFF;}
</style>
<g>
	<path class="st0" d="M188.3,79.3v27.9c2.5-2.7,5.9-4.7,9.7-6.2c3.7-1.5,7.6-2.2,11.5-2.2c6.3,0,12.1,1.7,17.3,4.9
		c5.2,3.3,9.3,7.6,12.2,13c3,5.4,4.4,11.1,4.4,17.1c0,6.4-1.4,12.4-4.1,18.1c-2.7,5.7-6.6,10.2-11.7,13.7c-5.1,3.4-11,5.2-17.8,5.2
		c-4.9,0-9.1-0.8-12.6-2.4s-6.4-4.2-10.2-8v8.8h-15.2V79.3H188.3z M227.2,134.6c0-3.9-0.9-7.4-2.6-10.6s-4.1-5.7-7.1-7.6
		s-6.4-2.8-10.2-2.8c-3.6,0-6.9,0.9-10,2.7s-5.5,4.3-7.3,7.4s-2.7,6.5-2.7,10.1c0,4.1,0.9,7.8,2.6,11.1c1.7,3.4,4.1,6,7.2,8
		s6.6,2.9,10.5,2.9c3.7,0,7.1-0.9,10-2.7c3-1.8,5.3-4.4,6.9-7.6C226.4,142.3,227.2,138.7,227.2,134.6"/>
	<path class="st0" d="M266.1,102.1v5.1h0.3c2.1-2.5,4.3-5,6.4-6.2c2.2-1.2,5.2-1.4,9-1.4h0.7v14.9c-10.1,0.4-15.2,5.6-15.2,15.7
		v39.1h-16.5v-67.2L266.1,102.1z"/>
	<path class="st0" d="M282,134.9c0-6.4,1.6-12.4,4.8-17.9s7.5-10,13-13.2c5.5-3.3,11.5-4.9,18.2-4.9c6.6,0,12.7,1.6,18.2,4.9
		c5.5,3.2,9.8,7.6,12.9,13.1s4.7,11.5,4.7,17.9c0,6.6-1.5,12.7-4.6,18.2s-7.4,9.9-12.8,13.1c-5.5,3.2-11.6,4.8-18.3,4.8
		c-6.5,0-12.5-1.6-18-4.9c-5.5-3.2-9.9-7.6-13.1-13.1C283.6,147.2,282,141.3,282,134.9 M337.5,135c0-3.6-0.8-7.1-2.5-10.4
		s-4.1-6-7-8c-3-2-6.4-3-10.1-3c-3.6,0-6.8,1-9.8,2.9s-5.4,4.6-7.2,7.8c-1.8,3.3-2.7,6.8-2.7,10.5s0.9,7.2,2.5,10.4
		c1.7,3.3,4.1,5.8,7.1,7.7s6.4,2.9,10.1,2.9s7.1-1,10-2.9c3-1.9,5.3-4.4,7-7.7C336.7,142.2,337.5,138.7,337.5,135"/>
	<path class="st0" d="M356.7,134.9c0-6.4,1.6-12.4,4.8-17.9s7.5-10,13-13.2c5.5-3.3,11.5-4.9,18.2-4.9c6.6,0,12.7,1.6,18.2,4.9
		c5.5,3.2,9.8,7.6,12.9,13.1s4.7,11.5,4.7,17.9c0,6.6-1.5,12.7-4.6,18.2s-7.4,9.9-12.8,13.1c-5.5,3.2-11.6,4.8-18.3,4.8
		c-6.5,0-12.5-1.6-18-4.9c-5.5-3.2-9.9-7.6-13.1-13.1C358.3,147.2,356.7,141.3,356.7,134.9 M412.3,135c0-3.6-0.9-7.1-2.5-10.4
		c-1.7-3.3-4.1-6-7.1-8s-6.4-3-10.1-3c-3.6,0-6.9,1-9.8,2.9c-3,1.9-5.4,4.6-7.2,7.8c-1.8,3.3-2.7,6.8-2.7,10.5s0.9,7.2,2.6,10.4
		c1.7,3.3,4.1,5.8,7.1,7.7s6.4,2.9,10.2,2.9c3.7,0,7.1-1,10-2.9c3-1.9,5.3-4.4,7-7.7C411.4,142.2,412.3,138.7,412.3,135"/>
	<path class="st0" d="M451.5,137.5v31.7h-16.4V79.3h16.4v54.4h0.2l21.5-31.6h18.6l-24.3,32.8l27.5,34.3h-20.4l-22.9-31.7
		L451.5,137.5L451.5,137.5z"/>
	<path class="st0" d="M69.1,219.2h-26C23.5,219.2,5,201.3,5,182.4V63.8c0-20.4,19.8-33,38.2-33h14.6c34.6,0,61.7,26.7,61.7,60.8
		c0,7.8-1.9,15.4-5.6,22.7c11,11.3,17,26,17,42.2C130.8,191.1,103.2,219.2,69.1,219.2 M43.2,45.4c-11.4,0-23.5,7.4-23.5,18.4v118.5
		c0,10.8,12.1,22.2,23.5,22.2h26c26,0,47.1-21.6,47.1-48c0-11.2-3.8-21.6-10.9-29.8c-12.2,13.9-29.9,22.5-41.5,22.9
		c-0.5,0-1.4,0.1-2.6,0.1c-12.5,0-27-7.3-27-27.8c0-17.1,12.3-27.7,32.1-27.7c2,0,3.4,0.1,3.6,0.2c11.8,0.9,22.8,4.5,32.2,10.5
		c1.8-4.3,2.7-8.7,2.7-13.2c0-25.9-20.7-46.2-47.1-46.2L43.2,45.4L43.2,45.4z M66.3,108.8c-11.6,0-17.4,4.4-17.4,13.1
		c0,3.6,0,13.2,12.4,13.2c0.7,0,1.1,0,1.2-0.1h0.7c7.3-0.2,21.3-6.9,31-17.8c-7.4-4.7-16.2-7.5-25.7-8.2
		C68.3,108.9,67.5,108.8,66.3,108.8"/>
</g>
</svg>
